G04 #@! TF.GenerationSoftware,KiCad,Pcbnew,10.0.3*
G04 #@! TF.CreationDate,2026-09-28T16:44:17+01:00*
G04 #@! TF.ProjectId,Matrix USB OTG,4d617472-6978-4205-9553-42204f54472e,rev?*
G04 #@! TF.SameCoordinates,Original*
G04 #@! TF.FileFunction,Legend,Top*
G04 #@! TF.FilePolarity,Positive*
%FSLAX46Y46*%
G04 Gerber Fmt 4.6, Leading zero omitted, Abs format (unit mm)*
G04 Created by KiCad (PCBNEW 10.0.3) date 2026-09-28 16:44:17*
%MOMM*%
%LPD*%
G01*
G04 APERTURE LIST*
%ADD10C,0.125000*%
%ADD11C,0.152400*%
%ADD12C,0.508000*%
%ADD13C,0.200000*%
G04 APERTURE END LIST*
D10*
X183478712Y-121011833D02*
X183478712Y-120311833D01*
X183478712Y-120311833D02*
X183669188Y-120311833D01*
X183669188Y-120311833D02*
X183783474Y-120345166D01*
X183783474Y-120345166D02*
X183859664Y-120411833D01*
X183859664Y-120411833D02*
X183897759Y-120478500D01*
X183897759Y-120478500D02*
X183935855Y-120611833D01*
X183935855Y-120611833D02*
X183935855Y-120711833D01*
X183935855Y-120711833D02*
X183897759Y-120845166D01*
X183897759Y-120845166D02*
X183859664Y-120911833D01*
X183859664Y-120911833D02*
X183783474Y-120978500D01*
X183783474Y-120978500D02*
X183669188Y-121011833D01*
X183669188Y-121011833D02*
X183478712Y-121011833D01*
X184278712Y-121011833D02*
X184278712Y-120311833D01*
X184278712Y-120311833D02*
X184735855Y-121011833D01*
X184735855Y-121011833D02*
X184735855Y-120311833D01*
X183664426Y-122111833D02*
X183931093Y-122811833D01*
X183931093Y-122811833D02*
X184197759Y-122111833D01*
X184731092Y-122445166D02*
X184845378Y-122478500D01*
X184845378Y-122478500D02*
X184883473Y-122511833D01*
X184883473Y-122511833D02*
X184921569Y-122578500D01*
X184921569Y-122578500D02*
X184921569Y-122678500D01*
X184921569Y-122678500D02*
X184883473Y-122745166D01*
X184883473Y-122745166D02*
X184845378Y-122778500D01*
X184845378Y-122778500D02*
X184769188Y-122811833D01*
X184769188Y-122811833D02*
X184464426Y-122811833D01*
X184464426Y-122811833D02*
X184464426Y-122111833D01*
X184464426Y-122111833D02*
X184731092Y-122111833D01*
X184731092Y-122111833D02*
X184807283Y-122145166D01*
X184807283Y-122145166D02*
X184845378Y-122178500D01*
X184845378Y-122178500D02*
X184883473Y-122245166D01*
X184883473Y-122245166D02*
X184883473Y-122311833D01*
X184883473Y-122311833D02*
X184845378Y-122378500D01*
X184845378Y-122378500D02*
X184807283Y-122411833D01*
X184807283Y-122411833D02*
X184731092Y-122445166D01*
X184731092Y-122445166D02*
X184464426Y-122445166D01*
X185264426Y-122111833D02*
X185264426Y-122678500D01*
X185264426Y-122678500D02*
X185302521Y-122745166D01*
X185302521Y-122745166D02*
X185340616Y-122778500D01*
X185340616Y-122778500D02*
X185416807Y-122811833D01*
X185416807Y-122811833D02*
X185569188Y-122811833D01*
X185569188Y-122811833D02*
X185645378Y-122778500D01*
X185645378Y-122778500D02*
X185683473Y-122745166D01*
X185683473Y-122745166D02*
X185721569Y-122678500D01*
X185721569Y-122678500D02*
X185721569Y-122111833D01*
X186064425Y-122778500D02*
X186178711Y-122811833D01*
X186178711Y-122811833D02*
X186369187Y-122811833D01*
X186369187Y-122811833D02*
X186445378Y-122778500D01*
X186445378Y-122778500D02*
X186483473Y-122745166D01*
X186483473Y-122745166D02*
X186521568Y-122678500D01*
X186521568Y-122678500D02*
X186521568Y-122611833D01*
X186521568Y-122611833D02*
X186483473Y-122545166D01*
X186483473Y-122545166D02*
X186445378Y-122511833D01*
X186445378Y-122511833D02*
X186369187Y-122478500D01*
X186369187Y-122478500D02*
X186216806Y-122445166D01*
X186216806Y-122445166D02*
X186140616Y-122411833D01*
X186140616Y-122411833D02*
X186102521Y-122378500D01*
X186102521Y-122378500D02*
X186064425Y-122311833D01*
X186064425Y-122311833D02*
X186064425Y-122245166D01*
X186064425Y-122245166D02*
X186102521Y-122178500D01*
X186102521Y-122178500D02*
X186140616Y-122145166D01*
X186140616Y-122145166D02*
X186216806Y-122111833D01*
X186216806Y-122111833D02*
X186407283Y-122111833D01*
X186407283Y-122111833D02*
X186521568Y-122145166D01*
X189097759Y-122145166D02*
X189021569Y-122111833D01*
X189021569Y-122111833D02*
X188907283Y-122111833D01*
X188907283Y-122111833D02*
X188792997Y-122145166D01*
X188792997Y-122145166D02*
X188716807Y-122211833D01*
X188716807Y-122211833D02*
X188678712Y-122278500D01*
X188678712Y-122278500D02*
X188640616Y-122411833D01*
X188640616Y-122411833D02*
X188640616Y-122511833D01*
X188640616Y-122511833D02*
X188678712Y-122645166D01*
X188678712Y-122645166D02*
X188716807Y-122711833D01*
X188716807Y-122711833D02*
X188792997Y-122778500D01*
X188792997Y-122778500D02*
X188907283Y-122811833D01*
X188907283Y-122811833D02*
X188983474Y-122811833D01*
X188983474Y-122811833D02*
X189097759Y-122778500D01*
X189097759Y-122778500D02*
X189135855Y-122745166D01*
X189135855Y-122745166D02*
X189135855Y-122511833D01*
X189135855Y-122511833D02*
X188983474Y-122511833D01*
X189478712Y-122811833D02*
X189478712Y-122111833D01*
X189478712Y-122111833D02*
X189935855Y-122811833D01*
X189935855Y-122811833D02*
X189935855Y-122111833D01*
X190316807Y-122811833D02*
X190316807Y-122111833D01*
X190316807Y-122111833D02*
X190507283Y-122111833D01*
X190507283Y-122111833D02*
X190621569Y-122145166D01*
X190621569Y-122145166D02*
X190697759Y-122211833D01*
X190697759Y-122211833D02*
X190735854Y-122278500D01*
X190735854Y-122278500D02*
X190773950Y-122411833D01*
X190773950Y-122411833D02*
X190773950Y-122511833D01*
X190773950Y-122511833D02*
X190735854Y-122645166D01*
X190735854Y-122645166D02*
X190697759Y-122711833D01*
X190697759Y-122711833D02*
X190621569Y-122778500D01*
X190621569Y-122778500D02*
X190507283Y-122811833D01*
X190507283Y-122811833D02*
X190316807Y-122811833D01*
X188778712Y-121211833D02*
X188778712Y-120511833D01*
X188778712Y-120511833D02*
X188969188Y-120511833D01*
X188969188Y-120511833D02*
X189083474Y-120545166D01*
X189083474Y-120545166D02*
X189159664Y-120611833D01*
X189159664Y-120611833D02*
X189197759Y-120678500D01*
X189197759Y-120678500D02*
X189235855Y-120811833D01*
X189235855Y-120811833D02*
X189235855Y-120911833D01*
X189235855Y-120911833D02*
X189197759Y-121045166D01*
X189197759Y-121045166D02*
X189159664Y-121111833D01*
X189159664Y-121111833D02*
X189083474Y-121178500D01*
X189083474Y-121178500D02*
X188969188Y-121211833D01*
X188969188Y-121211833D02*
X188778712Y-121211833D01*
X189578712Y-121211833D02*
X189578712Y-120511833D01*
X189578712Y-120511833D02*
X189883474Y-120511833D01*
X189883474Y-120511833D02*
X189959664Y-120545166D01*
X189959664Y-120545166D02*
X189997759Y-120578500D01*
X189997759Y-120578500D02*
X190035855Y-120645166D01*
X190035855Y-120645166D02*
X190035855Y-120745166D01*
X190035855Y-120745166D02*
X189997759Y-120811833D01*
X189997759Y-120811833D02*
X189959664Y-120845166D01*
X189959664Y-120845166D02*
X189883474Y-120878500D01*
X189883474Y-120878500D02*
X189578712Y-120878500D01*
X199899333Y-126621333D02*
X199899333Y-127121333D01*
X199899333Y-127121333D02*
X199861238Y-127221333D01*
X199861238Y-127221333D02*
X199785047Y-127288000D01*
X199785047Y-127288000D02*
X199670762Y-127321333D01*
X199670762Y-127321333D02*
X199594571Y-127321333D01*
X200699333Y-127321333D02*
X200242190Y-127321333D01*
X200470762Y-127321333D02*
X200470762Y-126621333D01*
X200470762Y-126621333D02*
X200394571Y-126721333D01*
X200394571Y-126721333D02*
X200318381Y-126788000D01*
X200318381Y-126788000D02*
X200242190Y-126821333D01*
X192229333Y-116271333D02*
X192229333Y-116771333D01*
X192229333Y-116771333D02*
X192205524Y-116871333D01*
X192205524Y-116871333D02*
X192157905Y-116938000D01*
X192157905Y-116938000D02*
X192086476Y-116971333D01*
X192086476Y-116971333D02*
X192038857Y-116971333D01*
X192443619Y-116338000D02*
X192467428Y-116304666D01*
X192467428Y-116304666D02*
X192515047Y-116271333D01*
X192515047Y-116271333D02*
X192634095Y-116271333D01*
X192634095Y-116271333D02*
X192681714Y-116304666D01*
X192681714Y-116304666D02*
X192705523Y-116338000D01*
X192705523Y-116338000D02*
X192729333Y-116404666D01*
X192729333Y-116404666D02*
X192729333Y-116471333D01*
X192729333Y-116471333D02*
X192705523Y-116571333D01*
X192705523Y-116571333D02*
X192419809Y-116971333D01*
X192419809Y-116971333D02*
X192729333Y-116971333D01*
D11*
X198753299Y-129891001D02*
X198753299Y-128889504D01*
X198753299Y-127258498D02*
X198753299Y-126843001D01*
X198753299Y-126843001D02*
X197170898Y-126843001D01*
X197168594Y-129891001D02*
X198753299Y-129891001D01*
X195741099Y-126843001D02*
X194170899Y-126843001D01*
X194168595Y-129891001D02*
X195743403Y-129891001D01*
X192741100Y-126843001D02*
X191158699Y-126843001D01*
X191158699Y-129891001D02*
X192743404Y-129891001D01*
X191158699Y-128889438D02*
X191158699Y-129891001D01*
X191158699Y-126843001D02*
X191158699Y-127258564D01*
D12*
X200912299Y-128694001D02*
G75*
G02*
X200150299Y-128694001I-381000J0D01*
G01*
X200150299Y-128694001D02*
G75*
G02*
X200912299Y-128694001I381000J0D01*
G01*
D13*
X184615999Y-119343999D02*
X184615999Y-118933999D01*
X189695999Y-118933999D02*
X189695999Y-119343999D01*
X189695999Y-119343999D02*
X184615999Y-119343999D01*
X191765999Y-115543999D02*
G75*
G02*
X191565999Y-115543999I-100000J0D01*
G01*
X191565999Y-115543999D02*
G75*
G02*
X191765999Y-115543999I100000J0D01*
G01*
M02*
