G04 #@! TF.GenerationSoftware,KiCad,Pcbnew,10.0.3*
G04 #@! TF.CreationDate,2026-09-28T16:44:17+01:00*
G04 #@! TF.ProjectId,Matrix USB OTG,4d617472-6978-4205-9553-42204f54472e,rev?*
G04 #@! TF.SameCoordinates,Original*
G04 #@! TF.FileFunction,Copper,L4,Bot*
G04 #@! TF.FilePolarity,Positive*
%FSLAX46Y46*%
G04 Gerber Fmt 4.6, Leading zero omitted, Abs format (unit mm)*
G04 Created by KiCad (PCBNEW 10.0.3) date 2026-09-28 16:44:17*
%MOMM*%
%LPD*%
G01*
G04 APERTURE LIST*
G04 #@! TA.AperFunction,ComponentPad*
%ADD10C,0.900000*%
G04 #@! TD*
G04 #@! TA.AperFunction,ComponentPad*
%ADD11C,0.725000*%
G04 #@! TD*
G04 #@! TA.AperFunction,ComponentPad*
%ADD12O,0.950000X0.820000*%
G04 #@! TD*
G04 #@! TA.AperFunction,ViaPad*
%ADD13C,0.600000*%
G04 #@! TD*
G04 #@! TA.AperFunction,Conductor*
%ADD14C,0.250000*%
G04 #@! TD*
G04 APERTURE END LIST*
D10*
X198281113Y-128074001D03*
X191630999Y-128074001D03*
D11*
X196255999Y-128694001D03*
X195605998Y-128044001D03*
X194955999Y-128694001D03*
X194306000Y-128044001D03*
X193655999Y-128694001D03*
D12*
X196455999Y-127114000D03*
X193456000Y-127114000D03*
X196455999Y-129614000D03*
X193456000Y-129614000D03*
D13*
X196071872Y-125798128D03*
X195540128Y-126329872D03*
X187428229Y-125792679D03*
X189189671Y-125792679D03*
X188406000Y-118064000D03*
X191556000Y-120758000D03*
X189488000Y-120758000D03*
X185420000Y-120758000D03*
X191556000Y-122665517D03*
X189189671Y-129902000D03*
X189189671Y-127870000D03*
X191556000Y-118114000D03*
X185533685Y-124297441D03*
X198374000Y-125792679D03*
X189956000Y-117184000D03*
X182756000Y-122665517D03*
X182756000Y-120758000D03*
X184306000Y-117134000D03*
X185906000Y-118064000D03*
X184330999Y-119041499D03*
X182756000Y-118014000D03*
D14*
X196071872Y-125798128D02*
X195824385Y-125798128D01*
X194305000Y-126947258D02*
X194955999Y-127598257D01*
X194955999Y-127598257D02*
X194955999Y-128694001D01*
X194305000Y-125930742D02*
X194305000Y-126947258D01*
X195824385Y-125798128D02*
X195489257Y-125463000D01*
X194772742Y-125463000D02*
X194305000Y-125930742D01*
X195489257Y-125463000D02*
X194772742Y-125463000D01*
X195322743Y-125865000D02*
X194939258Y-125865000D01*
X194707000Y-126097258D02*
X194707000Y-126780742D01*
X194707000Y-126780742D02*
X195357999Y-127431741D01*
X195357999Y-127796002D02*
X195605998Y-128044001D01*
X195540128Y-126329872D02*
X195540128Y-126082385D01*
X194939258Y-125865000D02*
X194707000Y-126097258D01*
X195540128Y-126082385D02*
X195322743Y-125865000D01*
X195357999Y-127431741D02*
X195357999Y-127796002D01*
G04 #@! TA.AperFunction,Conductor*
G36*
X191420418Y-114954816D02*
G01*
X191649024Y-114971165D01*
X191666525Y-114973682D01*
X191886143Y-115021456D01*
X191903102Y-115026435D01*
X192113698Y-115104984D01*
X192129778Y-115112328D01*
X192327036Y-115220039D01*
X192341919Y-115229604D01*
X192521836Y-115364288D01*
X192535207Y-115375874D01*
X192694125Y-115534792D01*
X192705711Y-115548163D01*
X192840395Y-115728080D01*
X192849960Y-115742963D01*
X192957668Y-115940215D01*
X192965018Y-115956308D01*
X193043561Y-116166889D01*
X193048545Y-116183865D01*
X193096316Y-116403468D01*
X193098834Y-116420980D01*
X193115184Y-116649581D01*
X193115500Y-116658427D01*
X193115500Y-121966405D01*
X193115500Y-122014000D01*
X193115500Y-122153154D01*
X193149046Y-122429435D01*
X193187750Y-122586462D01*
X193215650Y-122699657D01*
X193215651Y-122699662D01*
X193270224Y-122843559D01*
X193314339Y-122959881D01*
X193314341Y-122959885D01*
X193314342Y-122959887D01*
X193314342Y-122959888D01*
X193443674Y-123206308D01*
X193601770Y-123435350D01*
X193786326Y-123643673D01*
X193861248Y-123710047D01*
X193994645Y-123828226D01*
X194223689Y-123986324D01*
X194223691Y-123986325D01*
X194443537Y-124101710D01*
X194470119Y-124115661D01*
X194672595Y-124192449D01*
X194730337Y-124214348D01*
X194730338Y-124214348D01*
X194730343Y-124214350D01*
X195000565Y-124280954D01*
X195214223Y-124306896D01*
X195276843Y-124314500D01*
X195276846Y-124314500D01*
X195463594Y-124314500D01*
X195463595Y-124314500D01*
X195463595Y-124314499D01*
X195473236Y-124312973D01*
X195473258Y-124313114D01*
X195501043Y-124308714D01*
X199258406Y-124308714D01*
X199301572Y-124308714D01*
X199310418Y-124309030D01*
X199539024Y-124325379D01*
X199556525Y-124327896D01*
X199776143Y-124375670D01*
X199793102Y-124380649D01*
X200003698Y-124459198D01*
X200019778Y-124466542D01*
X200216611Y-124574021D01*
X200217036Y-124574253D01*
X200231919Y-124583818D01*
X200411836Y-124718502D01*
X200425207Y-124730088D01*
X200584125Y-124889006D01*
X200595711Y-124902377D01*
X200730395Y-125082294D01*
X200739960Y-125097177D01*
X200847668Y-125294429D01*
X200855018Y-125310522D01*
X200933561Y-125521103D01*
X200938545Y-125538079D01*
X200986316Y-125757682D01*
X200988834Y-125775194D01*
X201005184Y-126003795D01*
X201005500Y-126012641D01*
X201005500Y-129079572D01*
X201005184Y-129088418D01*
X200988834Y-129317019D01*
X200986316Y-129334531D01*
X200938545Y-129554134D01*
X200933561Y-129571110D01*
X200855018Y-129781691D01*
X200847668Y-129797784D01*
X200739960Y-129995036D01*
X200730395Y-130009919D01*
X200595711Y-130189836D01*
X200584125Y-130203207D01*
X200425207Y-130362125D01*
X200411836Y-130373711D01*
X200231919Y-130508395D01*
X200217036Y-130517960D01*
X200019784Y-130625668D01*
X200003691Y-130633018D01*
X199793110Y-130711561D01*
X199776134Y-130716545D01*
X199556531Y-130764316D01*
X199539019Y-130766834D01*
X199310418Y-130783184D01*
X199301572Y-130783500D01*
X188308568Y-130783500D01*
X188241529Y-130763815D01*
X188195774Y-130711011D01*
X188184884Y-130668346D01*
X188173444Y-130508395D01*
X188160369Y-130325577D01*
X188088290Y-129824256D01*
X188088289Y-129824249D01*
X188088005Y-129822943D01*
X188589171Y-129822943D01*
X188589171Y-129981057D01*
X188625541Y-130116790D01*
X188630094Y-130133783D01*
X188630097Y-130133790D01*
X188709146Y-130270709D01*
X188709150Y-130270714D01*
X188709151Y-130270716D01*
X188820955Y-130382520D01*
X188820957Y-130382521D01*
X188820961Y-130382524D01*
X188957880Y-130461573D01*
X188957887Y-130461577D01*
X189110614Y-130502500D01*
X189110616Y-130502500D01*
X189268726Y-130502500D01*
X189268728Y-130502500D01*
X189421455Y-130461577D01*
X189558387Y-130382520D01*
X189670191Y-130270716D01*
X189749248Y-130133784D01*
X189790171Y-129981057D01*
X189790171Y-129822943D01*
X189749248Y-129670216D01*
X189685929Y-129560543D01*
X189670195Y-129533290D01*
X189670189Y-129533282D01*
X189558388Y-129421481D01*
X189558380Y-129421475D01*
X189421461Y-129342426D01*
X189421457Y-129342424D01*
X189421455Y-129342423D01*
X189268728Y-129301500D01*
X189110614Y-129301500D01*
X188957887Y-129342423D01*
X188957880Y-129342426D01*
X188820961Y-129421475D01*
X188820953Y-129421481D01*
X188709152Y-129533282D01*
X188709146Y-129533290D01*
X188630097Y-129670209D01*
X188630094Y-129670216D01*
X188589171Y-129822943D01*
X188088005Y-129822943D01*
X187980632Y-129329362D01*
X187980629Y-129329352D01*
X187837945Y-128843410D01*
X187837942Y-128843402D01*
X187837940Y-128843395D01*
X187660945Y-128368853D01*
X187450547Y-127908147D01*
X187438868Y-127886759D01*
X187414561Y-127842243D01*
X187386549Y-127790943D01*
X188589171Y-127790943D01*
X188589171Y-127949057D01*
X188619121Y-128060830D01*
X188630094Y-128101783D01*
X188630097Y-128101790D01*
X188709146Y-128238709D01*
X188709150Y-128238714D01*
X188709151Y-128238716D01*
X188820955Y-128350520D01*
X188820957Y-128350521D01*
X188820961Y-128350524D01*
X188954743Y-128427762D01*
X188957887Y-128429577D01*
X189110614Y-128470500D01*
X189110616Y-128470500D01*
X189268726Y-128470500D01*
X189268728Y-128470500D01*
X189421455Y-128429577D01*
X189558387Y-128350520D01*
X189670191Y-128238716D01*
X189722611Y-128147921D01*
X190880498Y-128147921D01*
X190909339Y-128292908D01*
X190909342Y-128292918D01*
X190965911Y-128429489D01*
X190965918Y-128429502D01*
X191048047Y-128552416D01*
X191048050Y-128552420D01*
X191152579Y-128656949D01*
X191152583Y-128656952D01*
X191275497Y-128739081D01*
X191275510Y-128739088D01*
X191335792Y-128764057D01*
X191403999Y-128792309D01*
X191458403Y-128836149D01*
X191480468Y-128902443D01*
X191478165Y-128931060D01*
X191457211Y-129036405D01*
X191455500Y-129045008D01*
X191455500Y-129182994D01*
X191455500Y-129182996D01*
X191455499Y-129182996D01*
X191482418Y-129318323D01*
X191482421Y-129318333D01*
X191535221Y-129445805D01*
X191535228Y-129445818D01*
X191611885Y-129560542D01*
X191611888Y-129560546D01*
X191709454Y-129658112D01*
X191709458Y-129658115D01*
X191824182Y-129734772D01*
X191824195Y-129734779D01*
X191904051Y-129767856D01*
X191951672Y-129787581D01*
X191951676Y-129787581D01*
X191951677Y-129787582D01*
X192087004Y-129814501D01*
X192087007Y-129814501D01*
X192224995Y-129814501D01*
X192316041Y-129796390D01*
X192360328Y-129787581D01*
X192487811Y-129734776D01*
X192512508Y-129718273D01*
X192579184Y-129697395D01*
X192646564Y-129715878D01*
X192693256Y-129767856D01*
X192703017Y-129797182D01*
X192707802Y-129821240D01*
X192707805Y-129821249D01*
X192761361Y-129950546D01*
X192761363Y-129950550D01*
X192839114Y-130066912D01*
X192839120Y-130066920D01*
X192938079Y-130165879D01*
X192938087Y-130165885D01*
X193054449Y-130243636D01*
X193054453Y-130243638D01*
X193183750Y-130297194D01*
X193183755Y-130297196D01*
X193321017Y-130324499D01*
X193321021Y-130324500D01*
X193321022Y-130324500D01*
X193590979Y-130324500D01*
X193590980Y-130324499D01*
X193728245Y-130297196D01*
X193857548Y-130243637D01*
X193857550Y-130243636D01*
X193938067Y-130189836D01*
X193973917Y-130165882D01*
X194072882Y-130066917D01*
X194150637Y-129950548D01*
X194204196Y-129821245D01*
X194231500Y-129683978D01*
X194231500Y-129544022D01*
X194231499Y-129544017D01*
X195680499Y-129544017D01*
X195680499Y-129683982D01*
X195707801Y-129821237D01*
X195707804Y-129821249D01*
X195761360Y-129950546D01*
X195761362Y-129950550D01*
X195839113Y-130066912D01*
X195839119Y-130066920D01*
X195938078Y-130165879D01*
X195938086Y-130165885D01*
X196054448Y-130243636D01*
X196054452Y-130243638D01*
X196183749Y-130297194D01*
X196183754Y-130297196D01*
X196321016Y-130324499D01*
X196321020Y-130324500D01*
X196321021Y-130324500D01*
X196590978Y-130324500D01*
X196590979Y-130324499D01*
X196728244Y-130297196D01*
X196857547Y-130243637D01*
X196857549Y-130243636D01*
X196938066Y-130189836D01*
X196973916Y-130165882D01*
X197072881Y-130066917D01*
X197150636Y-129950548D01*
X197204195Y-129821245D01*
X197208980Y-129797184D01*
X197241364Y-129735274D01*
X197302079Y-129700699D01*
X197371849Y-129704438D01*
X197399488Y-129718272D01*
X197424188Y-129734776D01*
X197424190Y-129734777D01*
X197424194Y-129734779D01*
X197504050Y-129767856D01*
X197551671Y-129787581D01*
X197551675Y-129787581D01*
X197551676Y-129787582D01*
X197687003Y-129814501D01*
X197687006Y-129814501D01*
X197824994Y-129814501D01*
X197916040Y-129796390D01*
X197960327Y-129787581D01*
X198087810Y-129734776D01*
X198202541Y-129658115D01*
X198300113Y-129560543D01*
X198376774Y-129445812D01*
X198429579Y-129318329D01*
X198448511Y-129223154D01*
X198456499Y-129182996D01*
X198456499Y-129045005D01*
X198438567Y-128954860D01*
X198433842Y-128931104D01*
X198440069Y-128861515D01*
X198482931Y-128806337D01*
X198508007Y-128792353D01*
X198508114Y-128792309D01*
X198636608Y-128739085D01*
X198759529Y-128656952D01*
X198864064Y-128552417D01*
X198946197Y-128429496D01*
X199002771Y-128292914D01*
X199013553Y-128238709D01*
X199031613Y-128147921D01*
X199031613Y-128000080D01*
X199002772Y-127855093D01*
X199002771Y-127855092D01*
X199002771Y-127855088D01*
X198998255Y-127844185D01*
X198946200Y-127718512D01*
X198946193Y-127718499D01*
X198864064Y-127595585D01*
X198864061Y-127595581D01*
X198759532Y-127491052D01*
X198759528Y-127491049D01*
X198636614Y-127408920D01*
X198636601Y-127408913D01*
X198500030Y-127352344D01*
X198500020Y-127352341D01*
X198355033Y-127323501D01*
X198355031Y-127323501D01*
X198207195Y-127323501D01*
X198207193Y-127323501D01*
X198062205Y-127352341D01*
X198062195Y-127352344D01*
X197925624Y-127408913D01*
X197925611Y-127408920D01*
X197802697Y-127491049D01*
X197802693Y-127491052D01*
X197698164Y-127595581D01*
X197698161Y-127595585D01*
X197616032Y-127718499D01*
X197616025Y-127718512D01*
X197559456Y-127855083D01*
X197559453Y-127855093D01*
X197530613Y-128000080D01*
X197530613Y-128000083D01*
X197530613Y-128147919D01*
X197530613Y-128147921D01*
X197530612Y-128147921D01*
X197559453Y-128292907D01*
X197559455Y-128292915D01*
X197563014Y-128301506D01*
X197570483Y-128370975D01*
X197539207Y-128433454D01*
X197495906Y-128463519D01*
X197424191Y-128493224D01*
X197424181Y-128493229D01*
X197309457Y-128569886D01*
X197309453Y-128569889D01*
X197211887Y-128667455D01*
X197211884Y-128667459D01*
X197135227Y-128782183D01*
X197135220Y-128782196D01*
X197082420Y-128909668D01*
X197082418Y-128909675D01*
X197079128Y-128926216D01*
X197064143Y-128954860D01*
X197050426Y-128984137D01*
X197048045Y-128985634D01*
X197046742Y-128988126D01*
X197018648Y-129004122D01*
X196991281Y-129021335D01*
X196988468Y-129021307D01*
X196986025Y-129022699D01*
X196953742Y-129020968D01*
X196921415Y-129020652D01*
X196918039Y-129019053D01*
X196916256Y-129018958D01*
X196889455Y-129005677D01*
X196888924Y-129005328D01*
X196857547Y-128984363D01*
X196856042Y-128983739D01*
X196849882Y-128979695D01*
X196830737Y-128957160D01*
X196809641Y-128936437D01*
X196808368Y-128930828D01*
X196804646Y-128926447D01*
X196800723Y-128897136D01*
X196794180Y-128868299D01*
X196795656Y-128859272D01*
X196795378Y-128857194D01*
X196796327Y-128855166D01*
X196798163Y-128843946D01*
X196818499Y-128768053D01*
X196818499Y-128619948D01*
X196818498Y-128619946D01*
X196789992Y-128513559D01*
X196436373Y-128867181D01*
X196375050Y-128900666D01*
X196348692Y-128903500D01*
X196321016Y-128903500D01*
X196183761Y-128930802D01*
X196183749Y-128930805D01*
X196054452Y-128984361D01*
X196054448Y-128984363D01*
X195938086Y-129062114D01*
X195938078Y-129062120D01*
X195839119Y-129161079D01*
X195839113Y-129161087D01*
X195761362Y-129277449D01*
X195761360Y-129277453D01*
X195707804Y-129406750D01*
X195707801Y-129406762D01*
X195680499Y-129544017D01*
X194231499Y-129544017D01*
X194204196Y-129406755D01*
X194170690Y-129325864D01*
X194150639Y-129277456D01*
X194147768Y-129272085D01*
X194148911Y-129271473D01*
X194130033Y-129211191D01*
X194148515Y-129143810D01*
X194153866Y-129135852D01*
X194159531Y-129128092D01*
X194170985Y-129116639D01*
X194204327Y-129066737D01*
X194205852Y-129064650D01*
X194231603Y-129044888D01*
X194256508Y-129024075D01*
X194259159Y-129023741D01*
X194261281Y-129022114D01*
X194293634Y-129019411D01*
X194325833Y-129015367D01*
X194328244Y-129016520D01*
X194330908Y-129016298D01*
X194359581Y-129031512D01*
X194388861Y-129045521D01*
X194391313Y-129048350D01*
X194392627Y-129049048D01*
X194393934Y-129051376D01*
X194409100Y-129068878D01*
X194424550Y-129092001D01*
X194441014Y-129116641D01*
X194533358Y-129208985D01*
X194641954Y-129281546D01*
X194748949Y-129325864D01*
X194762609Y-129331522D01*
X194762613Y-129331522D01*
X194762614Y-129331523D01*
X194890696Y-129357001D01*
X194890699Y-129357001D01*
X195021301Y-129357001D01*
X195107472Y-129339859D01*
X195149389Y-129331522D01*
X195221869Y-129301500D01*
X195270043Y-129281546D01*
X195270044Y-129281545D01*
X195270047Y-129281544D01*
X195378637Y-129208987D01*
X195470985Y-129116639D01*
X195543542Y-129008049D01*
X195569569Y-128945213D01*
X195613409Y-128890810D01*
X195679703Y-128868745D01*
X195716225Y-128872892D01*
X195722004Y-128874440D01*
X195937254Y-128659191D01*
X196080999Y-128659191D01*
X196080999Y-128728811D01*
X196107642Y-128793130D01*
X196156870Y-128842358D01*
X196221189Y-128869001D01*
X196290809Y-128869001D01*
X196355128Y-128842358D01*
X196404356Y-128793130D01*
X196430999Y-128728811D01*
X196430999Y-128659191D01*
X196404356Y-128594872D01*
X196355128Y-128545644D01*
X196290809Y-128519001D01*
X196221189Y-128519001D01*
X196156870Y-128545644D01*
X196107642Y-128594872D01*
X196080999Y-128659191D01*
X195937254Y-128659191D01*
X196079222Y-128517224D01*
X196436438Y-128160006D01*
X196436438Y-128160005D01*
X196360905Y-128139767D01*
X196339681Y-128126830D01*
X196316581Y-128117647D01*
X196310364Y-128108961D01*
X196301244Y-128103402D01*
X196290382Y-128081042D01*
X196275916Y-128060830D01*
X196273427Y-128046138D01*
X196270715Y-128040555D01*
X196269153Y-128026190D01*
X196268998Y-128023092D01*
X196268998Y-127978701D01*
X196266029Y-127963776D01*
X196265575Y-127954698D01*
X196271693Y-127929211D01*
X196274029Y-127903102D01*
X196279719Y-127895776D01*
X196281884Y-127886759D01*
X196300810Y-127868625D01*
X196316891Y-127847924D01*
X196325637Y-127844838D01*
X196332335Y-127838421D01*
X196358065Y-127833397D01*
X196382781Y-127824678D01*
X196389420Y-127824500D01*
X196590978Y-127824500D01*
X196590979Y-127824499D01*
X196728244Y-127797196D01*
X196857547Y-127743637D01*
X196857549Y-127743636D01*
X196915340Y-127705020D01*
X196973916Y-127665882D01*
X197072881Y-127566917D01*
X197150636Y-127450548D01*
X197204195Y-127321245D01*
X197231499Y-127183978D01*
X197231499Y-127044022D01*
X197204195Y-126906755D01*
X197204135Y-126906610D01*
X197150637Y-126777453D01*
X197150635Y-126777449D01*
X197072884Y-126661087D01*
X197072878Y-126661079D01*
X196973919Y-126562120D01*
X196973911Y-126562114D01*
X196857549Y-126484363D01*
X196857545Y-126484361D01*
X196728248Y-126430805D01*
X196728238Y-126430802D01*
X196588930Y-126403092D01*
X196527020Y-126370707D01*
X196492445Y-126309991D01*
X196496185Y-126240222D01*
X196525438Y-126193797D01*
X196552392Y-126166844D01*
X196631449Y-126029912D01*
X196672372Y-125877185D01*
X196672372Y-125719071D01*
X196670912Y-125713622D01*
X197773500Y-125713622D01*
X197773500Y-125871736D01*
X197811256Y-126012641D01*
X197814423Y-126024462D01*
X197814426Y-126024469D01*
X197893475Y-126161388D01*
X197893479Y-126161393D01*
X197893480Y-126161395D01*
X198005284Y-126273199D01*
X198005286Y-126273200D01*
X198005290Y-126273203D01*
X198069010Y-126309991D01*
X198142216Y-126352256D01*
X198294943Y-126393179D01*
X198294945Y-126393179D01*
X198453055Y-126393179D01*
X198453057Y-126393179D01*
X198605784Y-126352256D01*
X198742716Y-126273199D01*
X198854520Y-126161395D01*
X198933577Y-126024463D01*
X198974500Y-125871736D01*
X198974500Y-125713622D01*
X198933577Y-125560895D01*
X198877594Y-125463928D01*
X198854524Y-125423969D01*
X198854518Y-125423961D01*
X198742717Y-125312160D01*
X198742709Y-125312154D01*
X198605790Y-125233105D01*
X198605786Y-125233103D01*
X198605784Y-125233102D01*
X198453057Y-125192179D01*
X198294943Y-125192179D01*
X198142216Y-125233102D01*
X198142209Y-125233105D01*
X198005290Y-125312154D01*
X198005282Y-125312160D01*
X197893481Y-125423961D01*
X197893475Y-125423969D01*
X197814426Y-125560888D01*
X197814423Y-125560895D01*
X197773500Y-125713622D01*
X196670912Y-125713622D01*
X196631449Y-125566344D01*
X196610125Y-125529409D01*
X196552396Y-125429418D01*
X196552390Y-125429410D01*
X196440589Y-125317609D01*
X196440581Y-125317603D01*
X196303662Y-125238554D01*
X196303658Y-125238552D01*
X196303656Y-125238551D01*
X196150929Y-125197628D01*
X195992815Y-125197628D01*
X195992810Y-125197628D01*
X195930111Y-125214428D01*
X195860262Y-125212764D01*
X195810339Y-125182334D01*
X195750522Y-125122517D01*
X195750520Y-125122515D01*
X195653494Y-125066497D01*
X195545275Y-125037500D01*
X194828760Y-125037500D01*
X194716724Y-125037500D01*
X194608505Y-125066497D01*
X194608502Y-125066498D01*
X194511482Y-125122513D01*
X194511476Y-125122517D01*
X193964517Y-125669476D01*
X193964513Y-125669482D01*
X193908498Y-125766502D01*
X193908497Y-125766505D01*
X193879500Y-125874724D01*
X193879500Y-126309795D01*
X193859815Y-126376834D01*
X193807011Y-126422589D01*
X193737853Y-126432533D01*
X193731310Y-126431413D01*
X193623322Y-126409933D01*
X193590978Y-126403500D01*
X193321022Y-126403500D01*
X193321017Y-126403500D01*
X193183762Y-126430802D01*
X193183750Y-126430805D01*
X193054453Y-126484361D01*
X193054449Y-126484363D01*
X192938087Y-126562114D01*
X192938079Y-126562120D01*
X192839120Y-126661079D01*
X192839114Y-126661087D01*
X192761363Y-126777449D01*
X192761361Y-126777453D01*
X192707805Y-126906750D01*
X192707802Y-126906762D01*
X192680500Y-127044017D01*
X192680500Y-127183982D01*
X192707802Y-127321237D01*
X192707805Y-127321249D01*
X192761361Y-127450546D01*
X192761363Y-127450550D01*
X192839114Y-127566912D01*
X192839120Y-127566920D01*
X192938079Y-127665879D01*
X192938087Y-127665885D01*
X193054449Y-127743636D01*
X193054453Y-127743638D01*
X193183750Y-127797194D01*
X193183755Y-127797196D01*
X193321017Y-127824499D01*
X193321021Y-127824500D01*
X193399268Y-127824500D01*
X193466307Y-127844185D01*
X193512062Y-127896989D01*
X193522006Y-127966147D01*
X193492981Y-128029703D01*
X193446720Y-128063061D01*
X193341954Y-128106455D01*
X193233358Y-128179016D01*
X193141014Y-128271360D01*
X193068453Y-128379956D01*
X193018479Y-128500606D01*
X193018476Y-128500616D01*
X192992999Y-128628698D01*
X192992999Y-128697018D01*
X192973314Y-128764057D01*
X192920510Y-128809812D01*
X192851352Y-128819756D01*
X192787796Y-128790731D01*
X192765897Y-128765909D01*
X192700114Y-128667459D01*
X192700111Y-128667455D01*
X192602545Y-128569889D01*
X192602541Y-128569886D01*
X192487817Y-128493229D01*
X192487808Y-128493224D01*
X192416189Y-128463559D01*
X192361786Y-128419718D01*
X192339721Y-128353424D01*
X192349082Y-128301544D01*
X192352657Y-128292914D01*
X192363439Y-128238709D01*
X192381499Y-128147921D01*
X192381499Y-128000080D01*
X192352658Y-127855093D01*
X192352657Y-127855092D01*
X192352657Y-127855088D01*
X192348141Y-127844185D01*
X192296086Y-127718512D01*
X192296079Y-127718499D01*
X192213950Y-127595585D01*
X192213947Y-127595581D01*
X192109418Y-127491052D01*
X192109414Y-127491049D01*
X191986500Y-127408920D01*
X191986487Y-127408913D01*
X191849916Y-127352344D01*
X191849906Y-127352341D01*
X191704919Y-127323501D01*
X191704917Y-127323501D01*
X191557081Y-127323501D01*
X191557079Y-127323501D01*
X191412091Y-127352341D01*
X191412081Y-127352344D01*
X191275510Y-127408913D01*
X191275497Y-127408920D01*
X191152583Y-127491049D01*
X191152579Y-127491052D01*
X191048050Y-127595581D01*
X191048047Y-127595585D01*
X190965918Y-127718499D01*
X190965911Y-127718512D01*
X190909342Y-127855083D01*
X190909339Y-127855093D01*
X190880499Y-128000080D01*
X190880499Y-128000083D01*
X190880499Y-128147919D01*
X190880499Y-128147921D01*
X190880498Y-128147921D01*
X189722611Y-128147921D01*
X189749248Y-128101784D01*
X189790171Y-127949057D01*
X189790171Y-127790943D01*
X189749248Y-127638216D01*
X189708081Y-127566912D01*
X189670195Y-127501290D01*
X189670189Y-127501282D01*
X189558388Y-127389481D01*
X189558380Y-127389475D01*
X189421461Y-127310426D01*
X189421457Y-127310424D01*
X189421455Y-127310423D01*
X189268728Y-127269500D01*
X189110614Y-127269500D01*
X188957887Y-127310423D01*
X188957880Y-127310426D01*
X188820961Y-127389475D01*
X188820953Y-127389481D01*
X188709152Y-127501282D01*
X188709146Y-127501290D01*
X188630097Y-127638209D01*
X188630094Y-127638216D01*
X188589171Y-127790943D01*
X187386549Y-127790943D01*
X187303150Y-127638209D01*
X187207819Y-127463623D01*
X186933998Y-127037549D01*
X186933995Y-127037544D01*
X186630485Y-126632101D01*
X186351374Y-126309991D01*
X186298807Y-126249325D01*
X186298797Y-126249315D01*
X186298785Y-126249302D01*
X185940697Y-125891214D01*
X185940684Y-125891202D01*
X185940675Y-125891193D01*
X185742037Y-125719072D01*
X185735747Y-125713622D01*
X186827729Y-125713622D01*
X186827729Y-125871736D01*
X186865485Y-126012641D01*
X186868652Y-126024462D01*
X186868655Y-126024469D01*
X186947704Y-126161388D01*
X186947708Y-126161393D01*
X186947709Y-126161395D01*
X187059513Y-126273199D01*
X187059515Y-126273200D01*
X187059519Y-126273203D01*
X187123239Y-126309991D01*
X187196445Y-126352256D01*
X187349172Y-126393179D01*
X187349174Y-126393179D01*
X187507284Y-126393179D01*
X187507286Y-126393179D01*
X187660013Y-126352256D01*
X187796945Y-126273199D01*
X187908749Y-126161395D01*
X187987806Y-126024463D01*
X188028729Y-125871736D01*
X188028729Y-125713622D01*
X188589171Y-125713622D01*
X188589171Y-125871736D01*
X188626927Y-126012641D01*
X188630094Y-126024462D01*
X188630097Y-126024469D01*
X188709146Y-126161388D01*
X188709150Y-126161393D01*
X188709151Y-126161395D01*
X188820955Y-126273199D01*
X188820957Y-126273200D01*
X188820961Y-126273203D01*
X188884681Y-126309991D01*
X188957887Y-126352256D01*
X189110614Y-126393179D01*
X189110616Y-126393179D01*
X189268726Y-126393179D01*
X189268728Y-126393179D01*
X189421455Y-126352256D01*
X189558387Y-126273199D01*
X189670191Y-126161395D01*
X189749248Y-126024463D01*
X189790171Y-125871736D01*
X189790171Y-125713622D01*
X189749248Y-125560895D01*
X189693265Y-125463928D01*
X189670195Y-125423969D01*
X189670189Y-125423961D01*
X189558388Y-125312160D01*
X189558380Y-125312154D01*
X189421461Y-125233105D01*
X189421457Y-125233103D01*
X189421455Y-125233102D01*
X189268728Y-125192179D01*
X189110614Y-125192179D01*
X188957887Y-125233102D01*
X188957880Y-125233105D01*
X188820961Y-125312154D01*
X188820953Y-125312160D01*
X188709152Y-125423961D01*
X188709146Y-125423969D01*
X188630097Y-125560888D01*
X188630094Y-125560895D01*
X188589171Y-125713622D01*
X188028729Y-125713622D01*
X187987806Y-125560895D01*
X187931823Y-125463928D01*
X187908753Y-125423969D01*
X187908747Y-125423961D01*
X187796946Y-125312160D01*
X187796938Y-125312154D01*
X187660019Y-125233105D01*
X187660015Y-125233103D01*
X187660013Y-125233102D01*
X187507286Y-125192179D01*
X187349172Y-125192179D01*
X187196445Y-125233102D01*
X187196438Y-125233105D01*
X187059519Y-125312154D01*
X187059511Y-125312160D01*
X186947710Y-125423961D01*
X186947704Y-125423969D01*
X186868655Y-125560888D01*
X186868652Y-125560895D01*
X186827729Y-125713622D01*
X185735747Y-125713622D01*
X185557898Y-125559514D01*
X185152455Y-125256004D01*
X185152450Y-125256001D01*
X184812455Y-125037500D01*
X184726377Y-124982181D01*
X184567226Y-124895278D01*
X184281850Y-124739451D01*
X183821150Y-124529056D01*
X183633845Y-124459195D01*
X183346605Y-124352060D01*
X183346599Y-124352058D01*
X183346585Y-124352053D01*
X183268869Y-124329234D01*
X183268868Y-124329234D01*
X182891346Y-124218384D01*
X184933185Y-124218384D01*
X184933185Y-124376498D01*
X184974063Y-124529055D01*
X184974108Y-124529224D01*
X184974111Y-124529231D01*
X185053160Y-124666150D01*
X185053164Y-124666155D01*
X185053165Y-124666157D01*
X185164969Y-124777961D01*
X185164971Y-124777962D01*
X185164975Y-124777965D01*
X185230687Y-124815903D01*
X185301901Y-124857018D01*
X185454628Y-124897941D01*
X185454630Y-124897941D01*
X185612740Y-124897941D01*
X185612742Y-124897941D01*
X185765469Y-124857018D01*
X185902401Y-124777961D01*
X186014205Y-124666157D01*
X186093262Y-124529225D01*
X186134185Y-124376498D01*
X186134185Y-124218384D01*
X186093262Y-124065657D01*
X186072463Y-124029631D01*
X186014209Y-123928731D01*
X186014203Y-123928723D01*
X185902402Y-123816922D01*
X185902394Y-123816916D01*
X185765475Y-123737867D01*
X185765471Y-123737865D01*
X185765469Y-123737864D01*
X185612742Y-123696941D01*
X185454628Y-123696941D01*
X185301901Y-123737864D01*
X185301894Y-123737867D01*
X185164975Y-123816916D01*
X185164967Y-123816922D01*
X185053166Y-123928723D01*
X185053160Y-123928731D01*
X184974111Y-124065650D01*
X184974108Y-124065657D01*
X184933185Y-124218384D01*
X182891346Y-124218384D01*
X182860647Y-124209370D01*
X182860637Y-124209367D01*
X182365750Y-124101710D01*
X181864423Y-124029631D01*
X181521654Y-124005115D01*
X181456189Y-123980698D01*
X181414318Y-123924764D01*
X181406500Y-123881431D01*
X181406500Y-122586460D01*
X182155500Y-122586460D01*
X182155500Y-122744573D01*
X182196423Y-122897300D01*
X182196426Y-122897307D01*
X182275475Y-123034226D01*
X182275479Y-123034231D01*
X182275480Y-123034233D01*
X182387284Y-123146037D01*
X182387286Y-123146038D01*
X182387290Y-123146041D01*
X182524209Y-123225090D01*
X182524216Y-123225094D01*
X182676943Y-123266017D01*
X182676945Y-123266017D01*
X182835055Y-123266017D01*
X182835057Y-123266017D01*
X182987784Y-123225094D01*
X183124716Y-123146037D01*
X183236520Y-123034233D01*
X183315577Y-122897301D01*
X183356500Y-122744574D01*
X183356500Y-122586460D01*
X190955500Y-122586460D01*
X190955500Y-122744573D01*
X190996423Y-122897300D01*
X190996426Y-122897307D01*
X191075475Y-123034226D01*
X191075479Y-123034231D01*
X191075480Y-123034233D01*
X191187284Y-123146037D01*
X191187286Y-123146038D01*
X191187290Y-123146041D01*
X191324209Y-123225090D01*
X191324216Y-123225094D01*
X191476943Y-123266017D01*
X191476945Y-123266017D01*
X191635055Y-123266017D01*
X191635057Y-123266017D01*
X191787784Y-123225094D01*
X191924716Y-123146037D01*
X192036520Y-123034233D01*
X192115577Y-122897301D01*
X192156500Y-122744574D01*
X192156500Y-122586460D01*
X192115577Y-122433733D01*
X192113094Y-122429432D01*
X192036524Y-122296807D01*
X192036518Y-122296799D01*
X191924717Y-122184998D01*
X191924709Y-122184992D01*
X191787790Y-122105943D01*
X191787786Y-122105941D01*
X191787784Y-122105940D01*
X191635057Y-122065017D01*
X191476943Y-122065017D01*
X191324216Y-122105940D01*
X191324209Y-122105943D01*
X191187290Y-122184992D01*
X191187282Y-122184998D01*
X191075481Y-122296799D01*
X191075475Y-122296807D01*
X190996426Y-122433726D01*
X190996423Y-122433733D01*
X190955500Y-122586460D01*
X183356500Y-122586460D01*
X183315577Y-122433733D01*
X183313094Y-122429432D01*
X183236524Y-122296807D01*
X183236518Y-122296799D01*
X183124717Y-122184998D01*
X183124709Y-122184992D01*
X182987790Y-122105943D01*
X182987786Y-122105941D01*
X182987784Y-122105940D01*
X182835057Y-122065017D01*
X182676943Y-122065017D01*
X182524216Y-122105940D01*
X182524209Y-122105943D01*
X182387290Y-122184992D01*
X182387282Y-122184998D01*
X182275481Y-122296799D01*
X182275475Y-122296807D01*
X182196426Y-122433726D01*
X182196423Y-122433733D01*
X182155500Y-122586460D01*
X181406500Y-122586460D01*
X181406500Y-120678943D01*
X182155500Y-120678943D01*
X182155500Y-120837056D01*
X182196423Y-120989783D01*
X182196426Y-120989790D01*
X182275475Y-121126709D01*
X182275479Y-121126714D01*
X182275480Y-121126716D01*
X182387284Y-121238520D01*
X182387286Y-121238521D01*
X182387290Y-121238524D01*
X182524209Y-121317573D01*
X182524216Y-121317577D01*
X182676943Y-121358500D01*
X182676945Y-121358500D01*
X182835055Y-121358500D01*
X182835057Y-121358500D01*
X182987784Y-121317577D01*
X183124716Y-121238520D01*
X183236520Y-121126716D01*
X183315577Y-120989784D01*
X183356500Y-120837057D01*
X183356500Y-120678943D01*
X184819500Y-120678943D01*
X184819500Y-120837056D01*
X184860423Y-120989783D01*
X184860426Y-120989790D01*
X184939475Y-121126709D01*
X184939479Y-121126714D01*
X184939480Y-121126716D01*
X185051284Y-121238520D01*
X185051286Y-121238521D01*
X185051290Y-121238524D01*
X185188209Y-121317573D01*
X185188216Y-121317577D01*
X185340943Y-121358500D01*
X185340945Y-121358500D01*
X185499055Y-121358500D01*
X185499057Y-121358500D01*
X185651784Y-121317577D01*
X185788716Y-121238520D01*
X185900520Y-121126716D01*
X185979577Y-120989784D01*
X186020500Y-120837057D01*
X186020500Y-120678943D01*
X188887500Y-120678943D01*
X188887500Y-120837056D01*
X188928423Y-120989783D01*
X188928426Y-120989790D01*
X189007475Y-121126709D01*
X189007479Y-121126714D01*
X189007480Y-121126716D01*
X189119284Y-121238520D01*
X189119286Y-121238521D01*
X189119290Y-121238524D01*
X189256209Y-121317573D01*
X189256216Y-121317577D01*
X189408943Y-121358500D01*
X189408945Y-121358500D01*
X189567055Y-121358500D01*
X189567057Y-121358500D01*
X189719784Y-121317577D01*
X189856716Y-121238520D01*
X189968520Y-121126716D01*
X190047577Y-120989784D01*
X190088500Y-120837057D01*
X190088500Y-120678943D01*
X190955500Y-120678943D01*
X190955500Y-120837056D01*
X190996423Y-120989783D01*
X190996426Y-120989790D01*
X191075475Y-121126709D01*
X191075479Y-121126714D01*
X191075480Y-121126716D01*
X191187284Y-121238520D01*
X191187286Y-121238521D01*
X191187290Y-121238524D01*
X191324209Y-121317573D01*
X191324216Y-121317577D01*
X191476943Y-121358500D01*
X191476945Y-121358500D01*
X191635055Y-121358500D01*
X191635057Y-121358500D01*
X191787784Y-121317577D01*
X191924716Y-121238520D01*
X192036520Y-121126716D01*
X192115577Y-120989784D01*
X192156500Y-120837057D01*
X192156500Y-120678943D01*
X192115577Y-120526216D01*
X192115573Y-120526209D01*
X192036524Y-120389290D01*
X192036518Y-120389282D01*
X191924717Y-120277481D01*
X191924709Y-120277475D01*
X191787790Y-120198426D01*
X191787786Y-120198424D01*
X191787784Y-120198423D01*
X191635057Y-120157500D01*
X191476943Y-120157500D01*
X191324216Y-120198423D01*
X191324209Y-120198426D01*
X191187290Y-120277475D01*
X191187282Y-120277481D01*
X191075481Y-120389282D01*
X191075475Y-120389290D01*
X190996426Y-120526209D01*
X190996423Y-120526216D01*
X190955500Y-120678943D01*
X190088500Y-120678943D01*
X190047577Y-120526216D01*
X190047573Y-120526209D01*
X189968524Y-120389290D01*
X189968518Y-120389282D01*
X189856717Y-120277481D01*
X189856709Y-120277475D01*
X189719790Y-120198426D01*
X189719786Y-120198424D01*
X189719784Y-120198423D01*
X189567057Y-120157500D01*
X189408943Y-120157500D01*
X189256216Y-120198423D01*
X189256209Y-120198426D01*
X189119290Y-120277475D01*
X189119282Y-120277481D01*
X189007481Y-120389282D01*
X189007475Y-120389290D01*
X188928426Y-120526209D01*
X188928423Y-120526216D01*
X188887500Y-120678943D01*
X186020500Y-120678943D01*
X185979577Y-120526216D01*
X185979573Y-120526209D01*
X185900524Y-120389290D01*
X185900518Y-120389282D01*
X185788717Y-120277481D01*
X185788709Y-120277475D01*
X185651790Y-120198426D01*
X185651786Y-120198424D01*
X185651784Y-120198423D01*
X185499057Y-120157500D01*
X185340943Y-120157500D01*
X185188216Y-120198423D01*
X185188209Y-120198426D01*
X185051290Y-120277475D01*
X185051282Y-120277481D01*
X184939481Y-120389282D01*
X184939475Y-120389290D01*
X184860426Y-120526209D01*
X184860423Y-120526216D01*
X184819500Y-120678943D01*
X183356500Y-120678943D01*
X183315577Y-120526216D01*
X183315573Y-120526209D01*
X183236524Y-120389290D01*
X183236518Y-120389282D01*
X183124717Y-120277481D01*
X183124709Y-120277475D01*
X182987790Y-120198426D01*
X182987786Y-120198424D01*
X182987784Y-120198423D01*
X182835057Y-120157500D01*
X182676943Y-120157500D01*
X182524216Y-120198423D01*
X182524209Y-120198426D01*
X182387290Y-120277475D01*
X182387282Y-120277481D01*
X182275481Y-120389282D01*
X182275475Y-120389290D01*
X182196426Y-120526209D01*
X182196423Y-120526216D01*
X182155500Y-120678943D01*
X181406500Y-120678943D01*
X181406500Y-117984943D01*
X187805500Y-117984943D01*
X187805500Y-118143057D01*
X187818898Y-118193057D01*
X187846423Y-118295783D01*
X187846426Y-118295790D01*
X187925475Y-118432709D01*
X187925479Y-118432714D01*
X187925480Y-118432716D01*
X188037284Y-118544520D01*
X188037286Y-118544521D01*
X188037290Y-118544524D01*
X188123887Y-118594520D01*
X188174216Y-118623577D01*
X188326943Y-118664500D01*
X188326945Y-118664500D01*
X188485055Y-118664500D01*
X188485057Y-118664500D01*
X188637784Y-118623577D01*
X188774716Y-118544520D01*
X188886520Y-118432716D01*
X188965577Y-118295784D01*
X189006500Y-118143057D01*
X189006500Y-118034943D01*
X190955500Y-118034943D01*
X190955500Y-118193057D01*
X190983026Y-118295783D01*
X190996423Y-118345783D01*
X190996426Y-118345790D01*
X191075475Y-118482709D01*
X191075479Y-118482714D01*
X191075480Y-118482716D01*
X191187284Y-118594520D01*
X191187286Y-118594521D01*
X191187290Y-118594524D01*
X191308492Y-118664499D01*
X191324216Y-118673577D01*
X191476943Y-118714500D01*
X191476945Y-118714500D01*
X191635055Y-118714500D01*
X191635057Y-118714500D01*
X191787784Y-118673577D01*
X191924716Y-118594520D01*
X192036520Y-118482716D01*
X192115577Y-118345784D01*
X192156500Y-118193057D01*
X192156500Y-118034943D01*
X192115577Y-117882216D01*
X192086706Y-117832209D01*
X192036524Y-117745290D01*
X192036518Y-117745282D01*
X191924717Y-117633481D01*
X191924709Y-117633475D01*
X191787790Y-117554426D01*
X191787786Y-117554424D01*
X191787784Y-117554423D01*
X191635057Y-117513500D01*
X191476943Y-117513500D01*
X191324216Y-117554423D01*
X191324209Y-117554426D01*
X191187290Y-117633475D01*
X191187282Y-117633481D01*
X191075481Y-117745282D01*
X191075475Y-117745290D01*
X190996426Y-117882209D01*
X190996423Y-117882216D01*
X190955500Y-118034943D01*
X189006500Y-118034943D01*
X189006500Y-117984943D01*
X188965577Y-117832216D01*
X188965573Y-117832209D01*
X188886524Y-117695290D01*
X188886518Y-117695282D01*
X188774717Y-117583481D01*
X188774709Y-117583475D01*
X188637790Y-117504426D01*
X188637786Y-117504424D01*
X188637784Y-117504423D01*
X188485057Y-117463500D01*
X188326943Y-117463500D01*
X188174216Y-117504423D01*
X188174209Y-117504426D01*
X188037290Y-117583475D01*
X188037282Y-117583481D01*
X187925481Y-117695282D01*
X187925475Y-117695290D01*
X187846426Y-117832209D01*
X187846423Y-117832216D01*
X187805500Y-117984943D01*
X181406500Y-117984943D01*
X181406500Y-117104943D01*
X189355500Y-117104943D01*
X189355500Y-117263056D01*
X189396423Y-117415783D01*
X189396426Y-117415790D01*
X189475475Y-117552709D01*
X189475479Y-117552714D01*
X189475480Y-117552716D01*
X189587284Y-117664520D01*
X189587286Y-117664521D01*
X189587290Y-117664524D01*
X189724209Y-117743573D01*
X189724216Y-117743577D01*
X189876943Y-117784500D01*
X189876945Y-117784500D01*
X190035055Y-117784500D01*
X190035057Y-117784500D01*
X190187784Y-117743577D01*
X190324716Y-117664520D01*
X190436520Y-117552716D01*
X190515577Y-117415784D01*
X190556500Y-117263057D01*
X190556500Y-117104943D01*
X190515577Y-116952216D01*
X190515573Y-116952209D01*
X190436524Y-116815290D01*
X190436518Y-116815282D01*
X190324717Y-116703481D01*
X190324709Y-116703475D01*
X190187790Y-116624426D01*
X190187786Y-116624424D01*
X190187784Y-116624423D01*
X190035057Y-116583500D01*
X189876943Y-116583500D01*
X189724216Y-116624423D01*
X189724209Y-116624426D01*
X189587290Y-116703475D01*
X189587282Y-116703481D01*
X189475481Y-116815282D01*
X189475475Y-116815290D01*
X189396426Y-116952209D01*
X189396423Y-116952216D01*
X189355500Y-117104943D01*
X181406500Y-117104943D01*
X181406500Y-116658427D01*
X181406816Y-116649581D01*
X181423165Y-116420980D01*
X181425681Y-116403476D01*
X181473457Y-116183852D01*
X181478434Y-116166901D01*
X181556986Y-115956295D01*
X181564325Y-115940226D01*
X181672043Y-115742955D01*
X181681599Y-115728086D01*
X181816293Y-115548156D01*
X181827867Y-115534799D01*
X181986799Y-115375867D01*
X182000156Y-115364293D01*
X182180086Y-115229599D01*
X182194955Y-115220043D01*
X182392226Y-115112325D01*
X182408295Y-115104986D01*
X182618901Y-115026434D01*
X182635852Y-115021457D01*
X182855476Y-114973681D01*
X182872973Y-114971165D01*
X183101582Y-114954816D01*
X183110428Y-114954500D01*
X183153594Y-114954500D01*
X191368406Y-114954500D01*
X191411572Y-114954500D01*
X191420418Y-114954816D01*
G37*
G04 #@! TD.AperFunction*
M02*
