G04 #@! TF.GenerationSoftware,KiCad,Pcbnew,10.0.3*
G04 #@! TF.CreationDate,2026-09-28T16:44:17+01:00*
G04 #@! TF.ProjectId,Matrix USB OTG,4d617472-6978-4205-9553-42204f54472e,rev?*
G04 #@! TF.SameCoordinates,Original*
G04 #@! TF.FileFunction,Copper,L1,Top*
G04 #@! TF.FilePolarity,Positive*
%FSLAX46Y46*%
G04 Gerber Fmt 4.6, Leading zero omitted, Abs format (unit mm)*
G04 Created by KiCad (PCBNEW 10.0.3) date 2026-09-28 16:44:17*
%MOMM*%
%LPD*%
G01*
G04 APERTURE LIST*
G04 #@! TA.AperFunction,ComponentPad*
%ADD10C,0.900000*%
G04 #@! TD*
G04 #@! TA.AperFunction,ComponentPad*
%ADD11C,0.725000*%
G04 #@! TD*
G04 #@! TA.AperFunction,ComponentPad*
%ADD12O,0.950000X0.820000*%
G04 #@! TD*
G04 #@! TA.AperFunction,SMDPad,CuDef*
%ADD13R,2.220000X1.020000*%
G04 #@! TD*
G04 #@! TA.AperFunction,ViaPad*
%ADD14C,0.600000*%
G04 #@! TD*
G04 #@! TA.AperFunction,Conductor*
%ADD15C,0.250000*%
G04 #@! TD*
G04 #@! TA.AperFunction,Conductor*
%ADD16C,0.300000*%
G04 #@! TD*
G04 APERTURE END LIST*
D10*
X198281113Y-128074001D03*
X191630999Y-128074001D03*
D11*
X196255999Y-128694001D03*
X195605998Y-128044001D03*
X194955999Y-128694001D03*
X194306000Y-128044001D03*
X193655999Y-128694001D03*
D12*
X196455999Y-127114000D03*
X193456000Y-127114000D03*
X196455999Y-129614000D03*
X193456000Y-129614000D03*
D13*
X189980999Y-115533999D03*
X184330999Y-115533999D03*
X189980999Y-118073999D03*
X184330999Y-118073999D03*
D14*
X196071872Y-125798128D03*
X195540128Y-126329872D03*
X187428229Y-125792679D03*
X189189671Y-125792679D03*
X188406000Y-118064000D03*
X191556000Y-120758000D03*
X189488000Y-120758000D03*
X185420000Y-120758000D03*
X191556000Y-122665517D03*
X189189671Y-129902000D03*
X189189671Y-127870000D03*
X191556000Y-118114000D03*
X185533685Y-124297441D03*
X198374000Y-125792679D03*
X189956000Y-117184000D03*
X182756000Y-122665517D03*
X182756000Y-120758000D03*
X184306000Y-117134000D03*
X185906000Y-118064000D03*
X184330999Y-119041499D03*
X182756000Y-118014000D03*
D15*
X196071872Y-125798128D02*
X195824385Y-125798128D01*
X195248257Y-125222000D02*
X192135342Y-125222000D01*
X188191414Y-115501106D02*
X189896414Y-115501106D01*
X187297000Y-120383658D02*
X187297000Y-116395520D01*
X187297000Y-116395520D02*
X188191414Y-115501106D01*
X195824385Y-125798128D02*
X195248257Y-125222000D01*
X192135342Y-125222000D02*
X187297000Y-120383658D01*
X195540128Y-126082385D02*
X195081743Y-125624000D01*
X195540128Y-126329872D02*
X195540128Y-126082385D01*
X186035999Y-115533999D02*
X184330999Y-115533999D01*
X186895000Y-120553000D02*
X186895000Y-116393000D01*
X195081743Y-125624000D02*
X191966000Y-125624000D01*
X191966000Y-125624000D02*
X186895000Y-120553000D01*
X186895000Y-116393000D02*
X186035999Y-115533999D01*
D16*
X193456000Y-127114000D02*
X196455999Y-127114000D01*
X184306000Y-117134000D02*
X184306000Y-118049000D01*
X185906000Y-118064000D02*
X184340998Y-118064000D01*
X184330999Y-118126499D02*
X184330999Y-119041499D01*
X182756000Y-118014000D02*
X184271000Y-118014000D01*
G04 #@! TA.AperFunction,Conductor*
G36*
X191649026Y-114971165D02*
G01*
X191666525Y-114973682D01*
X191886143Y-115021456D01*
X191903102Y-115026435D01*
X192113698Y-115104984D01*
X192129778Y-115112328D01*
X192327036Y-115220039D01*
X192341919Y-115229604D01*
X192521836Y-115364288D01*
X192535207Y-115375874D01*
X192694125Y-115534792D01*
X192705711Y-115548163D01*
X192840395Y-115728080D01*
X192849960Y-115742963D01*
X192957668Y-115940215D01*
X192965018Y-115956308D01*
X193043561Y-116166889D01*
X193048545Y-116183865D01*
X193096316Y-116403468D01*
X193098834Y-116420980D01*
X193115184Y-116649581D01*
X193115500Y-116658427D01*
X193115500Y-121966405D01*
X193115500Y-122014000D01*
X193115500Y-122153154D01*
X193149046Y-122429435D01*
X193215650Y-122699657D01*
X193215651Y-122699662D01*
X193270224Y-122843559D01*
X193314339Y-122959881D01*
X193314341Y-122959885D01*
X193314342Y-122959887D01*
X193314342Y-122959888D01*
X193443674Y-123206308D01*
X193601770Y-123435350D01*
X193786326Y-123643673D01*
X193861248Y-123710047D01*
X193994645Y-123828226D01*
X194223689Y-123986324D01*
X194223691Y-123986325D01*
X194443537Y-124101710D01*
X194470119Y-124115661D01*
X194672595Y-124192449D01*
X194730337Y-124214348D01*
X194730338Y-124214348D01*
X194730343Y-124214350D01*
X195000565Y-124280954D01*
X195214223Y-124306896D01*
X195276843Y-124314500D01*
X195276846Y-124314500D01*
X195463594Y-124314500D01*
X195463595Y-124314500D01*
X195463595Y-124314499D01*
X195473236Y-124312973D01*
X195473462Y-124314405D01*
X195482904Y-124310048D01*
X195501043Y-124308714D01*
X199258406Y-124308714D01*
X199301572Y-124308714D01*
X199310418Y-124309030D01*
X199539024Y-124325379D01*
X199556525Y-124327896D01*
X199776143Y-124375670D01*
X199793102Y-124380649D01*
X200003698Y-124459198D01*
X200019778Y-124466542D01*
X200216611Y-124574021D01*
X200217036Y-124574253D01*
X200231919Y-124583818D01*
X200411836Y-124718502D01*
X200425207Y-124730088D01*
X200584125Y-124889006D01*
X200595711Y-124902377D01*
X200730395Y-125082294D01*
X200739960Y-125097177D01*
X200847668Y-125294429D01*
X200855018Y-125310522D01*
X200933561Y-125521103D01*
X200938545Y-125538079D01*
X200986316Y-125757682D01*
X200988834Y-125775194D01*
X201000788Y-125942334D01*
X201005088Y-126002460D01*
X201005184Y-126003795D01*
X201005500Y-126012641D01*
X201005500Y-129079572D01*
X201005184Y-129088418D01*
X200988834Y-129317019D01*
X200986316Y-129334531D01*
X200938545Y-129554134D01*
X200933561Y-129571110D01*
X200855018Y-129781691D01*
X200847668Y-129797784D01*
X200739960Y-129995036D01*
X200730395Y-130009919D01*
X200595711Y-130189836D01*
X200584125Y-130203207D01*
X200425207Y-130362125D01*
X200411836Y-130373711D01*
X200231919Y-130508395D01*
X200217036Y-130517960D01*
X200019784Y-130625668D01*
X200003691Y-130633018D01*
X199793110Y-130711561D01*
X199776134Y-130716545D01*
X199556531Y-130764316D01*
X199539019Y-130766834D01*
X199310418Y-130783184D01*
X199301572Y-130783500D01*
X188308568Y-130783500D01*
X188241529Y-130763815D01*
X188195774Y-130711011D01*
X188184884Y-130668346D01*
X188173444Y-130508395D01*
X188160369Y-130325577D01*
X188088290Y-129824256D01*
X188088289Y-129824249D01*
X187980632Y-129329362D01*
X187980629Y-129329352D01*
X187978165Y-129320962D01*
X187942529Y-129199595D01*
X187837945Y-128843410D01*
X187837942Y-128843402D01*
X187837940Y-128843395D01*
X187660945Y-128368853D01*
X187660944Y-128368852D01*
X187660942Y-128368845D01*
X187660940Y-128368842D01*
X187517797Y-128055401D01*
X187450548Y-127908149D01*
X187304242Y-127640208D01*
X187207822Y-127463629D01*
X187207819Y-127463623D01*
X186933998Y-127037549D01*
X186933995Y-127037544D01*
X186630485Y-126632101D01*
X186428384Y-126398865D01*
X186298807Y-126249325D01*
X186298797Y-126249315D01*
X186298785Y-126249302D01*
X185940697Y-125891214D01*
X185940684Y-125891202D01*
X185940675Y-125891193D01*
X185806805Y-125775194D01*
X185557898Y-125559514D01*
X185152455Y-125256004D01*
X185152450Y-125256001D01*
X184920960Y-125107232D01*
X184726377Y-124982181D01*
X184726370Y-124982177D01*
X184281850Y-124739451D01*
X183821150Y-124529056D01*
X183346589Y-124352054D01*
X182860647Y-124209370D01*
X182860637Y-124209367D01*
X182365750Y-124101710D01*
X181864423Y-124029631D01*
X181521654Y-124005115D01*
X181456189Y-123980698D01*
X181414318Y-123924764D01*
X181406500Y-123881431D01*
X181406500Y-116658427D01*
X181406816Y-116649581D01*
X181412016Y-116576870D01*
X181423165Y-116420973D01*
X181425681Y-116403476D01*
X181473457Y-116183852D01*
X181478434Y-116166901D01*
X181556986Y-115956295D01*
X181564325Y-115940226D01*
X181672043Y-115742955D01*
X181681599Y-115728086D01*
X181816293Y-115548156D01*
X181827867Y-115534799D01*
X181986799Y-115375867D01*
X182000156Y-115364293D01*
X182180086Y-115229599D01*
X182194955Y-115220043D01*
X182392226Y-115112325D01*
X182408295Y-115104986D01*
X182618901Y-115026434D01*
X182635856Y-115021456D01*
X182670143Y-115013998D01*
X182739833Y-115018983D01*
X182795767Y-115060854D01*
X182820183Y-115126319D01*
X182820499Y-115135164D01*
X182820499Y-116075516D01*
X182826979Y-116116427D01*
X182835353Y-116169303D01*
X182892949Y-116282341D01*
X182892951Y-116282343D01*
X182892953Y-116282346D01*
X182982651Y-116372044D01*
X182982653Y-116372045D01*
X182982657Y-116372049D01*
X183095693Y-116429644D01*
X183095697Y-116429646D01*
X183189474Y-116444498D01*
X183189480Y-116444499D01*
X183705483Y-116444498D01*
X183772521Y-116464182D01*
X183818276Y-116516986D01*
X183828220Y-116586145D01*
X183799195Y-116649701D01*
X183793164Y-116656178D01*
X183761889Y-116687453D01*
X183761885Y-116687458D01*
X183685228Y-116802182D01*
X183685221Y-116802195D01*
X183632421Y-116929667D01*
X183632418Y-116929677D01*
X183605761Y-117063691D01*
X183573376Y-117125602D01*
X183512660Y-117160176D01*
X183484144Y-117163499D01*
X183189481Y-117163499D01*
X183108518Y-117176322D01*
X183095695Y-117178353D01*
X182982657Y-117235949D01*
X182982656Y-117235950D01*
X182982651Y-117235953D01*
X182938679Y-117279925D01*
X182877356Y-117313409D01*
X182831085Y-117313822D01*
X182831058Y-117314097D01*
X182828507Y-117313845D01*
X182826813Y-117313861D01*
X182824999Y-117313500D01*
X182824993Y-117313500D01*
X182687007Y-117313500D01*
X182687005Y-117313500D01*
X182551677Y-117340418D01*
X182551667Y-117340421D01*
X182424195Y-117393221D01*
X182424182Y-117393228D01*
X182309458Y-117469885D01*
X182309454Y-117469888D01*
X182211888Y-117567454D01*
X182211885Y-117567458D01*
X182135228Y-117682182D01*
X182135221Y-117682195D01*
X182082421Y-117809667D01*
X182082418Y-117809677D01*
X182055500Y-117945004D01*
X182055500Y-117945007D01*
X182055500Y-118082993D01*
X182055500Y-118082995D01*
X182055499Y-118082995D01*
X182082418Y-118218322D01*
X182082421Y-118218332D01*
X182135221Y-118345804D01*
X182135228Y-118345817D01*
X182211885Y-118460541D01*
X182211888Y-118460545D01*
X182309454Y-118558111D01*
X182309458Y-118558114D01*
X182424182Y-118634771D01*
X182424195Y-118634778D01*
X182544900Y-118684775D01*
X182551672Y-118687580D01*
X182551676Y-118687580D01*
X182551677Y-118687581D01*
X182687004Y-118714500D01*
X182762014Y-118714500D01*
X182829053Y-118734185D01*
X182872497Y-118782203D01*
X182873994Y-118785140D01*
X182892950Y-118822343D01*
X182982651Y-118912044D01*
X182982653Y-118912045D01*
X182982657Y-118912049D01*
X183095693Y-118969644D01*
X183095697Y-118969646D01*
X183189474Y-118984498D01*
X183189480Y-118984499D01*
X183506499Y-118984498D01*
X183573538Y-119004182D01*
X183619293Y-119056986D01*
X183629620Y-119104459D01*
X183629902Y-119104432D01*
X183630139Y-119106846D01*
X183630499Y-119108498D01*
X183630499Y-119110492D01*
X183630499Y-119110494D01*
X183630498Y-119110494D01*
X183657417Y-119245821D01*
X183657420Y-119245831D01*
X183710220Y-119373303D01*
X183710227Y-119373316D01*
X183786884Y-119488040D01*
X183786887Y-119488044D01*
X183884453Y-119585610D01*
X183884457Y-119585613D01*
X183999181Y-119662270D01*
X183999194Y-119662277D01*
X184126666Y-119715077D01*
X184126671Y-119715079D01*
X184126675Y-119715079D01*
X184126676Y-119715080D01*
X184262003Y-119741999D01*
X184262006Y-119741999D01*
X184399994Y-119741999D01*
X184491040Y-119723888D01*
X184535327Y-119715079D01*
X184662810Y-119662274D01*
X184777541Y-119585613D01*
X184875113Y-119488041D01*
X184951774Y-119373310D01*
X185004579Y-119245827D01*
X185031499Y-119110492D01*
X185031499Y-119108498D01*
X185031794Y-119107490D01*
X185032096Y-119104432D01*
X185032676Y-119104489D01*
X185051184Y-119041459D01*
X185103988Y-118995704D01*
X185155499Y-118984498D01*
X185472516Y-118984498D01*
X185472517Y-118984498D01*
X185566303Y-118969645D01*
X185679341Y-118912049D01*
X185769049Y-118822341D01*
X185769050Y-118822337D01*
X185773934Y-118815617D01*
X185829263Y-118772950D01*
X185874254Y-118764500D01*
X185974995Y-118764500D01*
X186066041Y-118746389D01*
X186110328Y-118737580D01*
X186198049Y-118701244D01*
X186267516Y-118693776D01*
X186329995Y-118725051D01*
X186365648Y-118785140D01*
X186369500Y-118815806D01*
X186369500Y-120476204D01*
X186369499Y-120476222D01*
X186369499Y-120483817D01*
X186369499Y-120622183D01*
X186384529Y-120678276D01*
X186392045Y-120706324D01*
X186392044Y-120706324D01*
X186405310Y-120755831D01*
X186405313Y-120755838D01*
X186474492Y-120875661D01*
X186474496Y-120875666D01*
X186579400Y-120980570D01*
X186579406Y-120980575D01*
X191541154Y-125942323D01*
X191541164Y-125942334D01*
X191545494Y-125946664D01*
X191545495Y-125946665D01*
X191643335Y-126044505D01*
X191763164Y-126113688D01*
X191776966Y-126117386D01*
X191776968Y-126117387D01*
X191776969Y-126117387D01*
X191896817Y-126149501D01*
X191896819Y-126149501D01*
X192042779Y-126149501D01*
X192042795Y-126149500D01*
X194715628Y-126149500D01*
X194782667Y-126169185D01*
X194828422Y-126221989D01*
X194839628Y-126273500D01*
X194839628Y-126398865D01*
X194839628Y-126398867D01*
X194839627Y-126398867D01*
X194866546Y-126534194D01*
X194866549Y-126534204D01*
X194919349Y-126661676D01*
X194919356Y-126661689D01*
X194996013Y-126776413D01*
X194996016Y-126776417D01*
X195093582Y-126873983D01*
X195093586Y-126873986D01*
X195208310Y-126950643D01*
X195208323Y-126950650D01*
X195335795Y-127003450D01*
X195335800Y-127003452D01*
X195335804Y-127003452D01*
X195335805Y-127003453D01*
X195471132Y-127030372D01*
X195471135Y-127030372D01*
X195609119Y-127030372D01*
X195609121Y-127030372D01*
X195632807Y-127025660D01*
X195702395Y-127031886D01*
X195757574Y-127074747D01*
X195780821Y-127140636D01*
X195780999Y-127147277D01*
X195780999Y-127157001D01*
X195761314Y-127224040D01*
X195708510Y-127269795D01*
X195656999Y-127281001D01*
X195530847Y-127281001D01*
X195383444Y-127310321D01*
X195383434Y-127310324D01*
X195244588Y-127367835D01*
X195244575Y-127367842D01*
X195119614Y-127451339D01*
X195119610Y-127451342D01*
X195043680Y-127527273D01*
X194982357Y-127560758D01*
X194912665Y-127555774D01*
X194868318Y-127527273D01*
X194792387Y-127451342D01*
X194792383Y-127451339D01*
X194667422Y-127367842D01*
X194667409Y-127367835D01*
X194528563Y-127310324D01*
X194528553Y-127310321D01*
X194381151Y-127281001D01*
X194381149Y-127281001D01*
X194255000Y-127281001D01*
X194187961Y-127261316D01*
X194142206Y-127208512D01*
X194131000Y-127157001D01*
X194131000Y-127053917D01*
X194130999Y-127053915D01*
X194107559Y-126936076D01*
X194107556Y-126936064D01*
X194061578Y-126825062D01*
X194061571Y-126825050D01*
X194005556Y-126741219D01*
X193699118Y-127047658D01*
X193667940Y-126972386D01*
X193597614Y-126902060D01*
X193522341Y-126870881D01*
X193815851Y-126577371D01*
X193815850Y-126577370D01*
X193809947Y-126573426D01*
X193698931Y-126527442D01*
X193698923Y-126527440D01*
X193581083Y-126504000D01*
X193330917Y-126504000D01*
X193213076Y-126527440D01*
X193213068Y-126527442D01*
X193102057Y-126573424D01*
X193102055Y-126573425D01*
X193096148Y-126577371D01*
X193389658Y-126870881D01*
X193314386Y-126902060D01*
X193244060Y-126972386D01*
X193212881Y-127047657D01*
X192906442Y-126741218D01*
X192906442Y-126741219D01*
X192850427Y-126825052D01*
X192850423Y-126825059D01*
X192804442Y-126936068D01*
X192804440Y-126936076D01*
X192781000Y-127053915D01*
X192781000Y-127174084D01*
X192804440Y-127291923D01*
X192804443Y-127291935D01*
X192850422Y-127402940D01*
X192906442Y-127486779D01*
X193212881Y-127180341D01*
X193244060Y-127255614D01*
X193314386Y-127325940D01*
X193389657Y-127357118D01*
X193096148Y-127650627D01*
X193096148Y-127650628D01*
X193102058Y-127654576D01*
X193102060Y-127654577D01*
X193213064Y-127700556D01*
X193213076Y-127700559D01*
X193330915Y-127723999D01*
X193330918Y-127724000D01*
X193440610Y-127724000D01*
X193455699Y-127728430D01*
X193471418Y-127727888D01*
X193488538Y-127738073D01*
X193507649Y-127743685D01*
X193517947Y-127755569D01*
X193531465Y-127763612D01*
X193540361Y-127781436D01*
X193553404Y-127796489D01*
X193556048Y-127812868D01*
X193562666Y-127826128D01*
X193562416Y-127852311D01*
X193563884Y-127861401D01*
X193563294Y-127866828D01*
X193543000Y-127968852D01*
X193543000Y-128053509D01*
X193542274Y-128060188D01*
X193531340Y-128086495D01*
X193523315Y-128113826D01*
X193518105Y-128118340D01*
X193515459Y-128124707D01*
X193492037Y-128140928D01*
X193470511Y-128159581D01*
X193459269Y-128163622D01*
X193458020Y-128164488D01*
X193456739Y-128164532D01*
X193451096Y-128166561D01*
X193438884Y-128169833D01*
X193438879Y-128169835D01*
X193356292Y-128217517D01*
X193657775Y-128519001D01*
X193621189Y-128519001D01*
X193556870Y-128545644D01*
X193507642Y-128594872D01*
X193480999Y-128659191D01*
X193480999Y-128695777D01*
X193179515Y-128394294D01*
X193131833Y-128476881D01*
X193131832Y-128476884D01*
X193093499Y-128619946D01*
X193093499Y-128768055D01*
X193131832Y-128911117D01*
X193131835Y-128911126D01*
X193133097Y-128913311D01*
X193133600Y-128915386D01*
X193134943Y-128918628D01*
X193134783Y-128918693D01*
X193137564Y-128921789D01*
X193142416Y-128951734D01*
X193149566Y-128981212D01*
X193147949Y-128985881D01*
X193148740Y-128990759D01*
X193136634Y-129018570D01*
X193126711Y-129047237D01*
X193122286Y-129051531D01*
X193120854Y-129054823D01*
X193094597Y-129078408D01*
X193044599Y-129111815D01*
X192977921Y-129132692D01*
X192910541Y-129114207D01*
X192863852Y-129062228D01*
X192854092Y-129032903D01*
X192847549Y-129000009D01*
X192829580Y-128909673D01*
X192812733Y-128869001D01*
X192776778Y-128782196D01*
X192776771Y-128782183D01*
X192700114Y-128667459D01*
X192700111Y-128667455D01*
X192602545Y-128569889D01*
X192602541Y-128569886D01*
X192487817Y-128493229D01*
X192487804Y-128493222D01*
X192360332Y-128440422D01*
X192360318Y-128440418D01*
X192344479Y-128437267D01*
X192282569Y-128404880D01*
X192247997Y-128344163D01*
X192251740Y-128274393D01*
X192254117Y-128268190D01*
X192256021Y-128263592D01*
X192256021Y-128263591D01*
X192280998Y-128138024D01*
X192280999Y-128138021D01*
X192280999Y-128009981D01*
X192280998Y-128009977D01*
X192256021Y-127884410D01*
X192256019Y-127884402D01*
X192207022Y-127766114D01*
X192207017Y-127766104D01*
X192170429Y-127711347D01*
X192170428Y-127711347D01*
X191913305Y-127968469D01*
X191910555Y-127958205D01*
X191871059Y-127889796D01*
X191815204Y-127833941D01*
X191746795Y-127794445D01*
X191736529Y-127791694D01*
X191993652Y-127534571D01*
X191993651Y-127534570D01*
X191938887Y-127497977D01*
X191820597Y-127448980D01*
X191820589Y-127448978D01*
X191695022Y-127424001D01*
X191566975Y-127424001D01*
X191441408Y-127448978D01*
X191441400Y-127448980D01*
X191323108Y-127497979D01*
X191268345Y-127534569D01*
X191268344Y-127534570D01*
X191525469Y-127791694D01*
X191515203Y-127794445D01*
X191446794Y-127833941D01*
X191390939Y-127889796D01*
X191351443Y-127958205D01*
X191348692Y-127968470D01*
X191091568Y-127711346D01*
X191091567Y-127711347D01*
X191054977Y-127766110D01*
X191005978Y-127884402D01*
X191005976Y-127884410D01*
X190980999Y-128009977D01*
X190980999Y-128138024D01*
X191005976Y-128263591D01*
X191005978Y-128263599D01*
X191054975Y-128381889D01*
X191091568Y-128436653D01*
X191091569Y-128436654D01*
X191348692Y-128179530D01*
X191351443Y-128189797D01*
X191390939Y-128258206D01*
X191446794Y-128314061D01*
X191515203Y-128353557D01*
X191525467Y-128356307D01*
X191268345Y-128613430D01*
X191268345Y-128613431D01*
X191323102Y-128650019D01*
X191323111Y-128650024D01*
X191436328Y-128696920D01*
X191490731Y-128740761D01*
X191512796Y-128807055D01*
X191503437Y-128858932D01*
X191482420Y-128909673D01*
X191482418Y-128909678D01*
X191455500Y-129045005D01*
X191455500Y-129045008D01*
X191455500Y-129182994D01*
X191455500Y-129182996D01*
X191455499Y-129182996D01*
X191482418Y-129318323D01*
X191482421Y-129318333D01*
X191535221Y-129445805D01*
X191535228Y-129445818D01*
X191611885Y-129560542D01*
X191611888Y-129560546D01*
X191709454Y-129658112D01*
X191709458Y-129658115D01*
X191824182Y-129734772D01*
X191824195Y-129734779D01*
X191908399Y-129769657D01*
X191951672Y-129787581D01*
X191951676Y-129787581D01*
X191951677Y-129787582D01*
X192087004Y-129814501D01*
X192087007Y-129814501D01*
X192224995Y-129814501D01*
X192338499Y-129791923D01*
X192360328Y-129787581D01*
X192469716Y-129742271D01*
X192487804Y-129734779D01*
X192487804Y-129734778D01*
X192487811Y-129734776D01*
X192487817Y-129734772D01*
X192602957Y-129657838D01*
X192669634Y-129636960D01*
X192737015Y-129655444D01*
X192783705Y-129707423D01*
X192793465Y-129736749D01*
X192804440Y-129791923D01*
X192804443Y-129791935D01*
X192850422Y-129902940D01*
X192906442Y-129986779D01*
X193212881Y-129680341D01*
X193244060Y-129755614D01*
X193314386Y-129825940D01*
X193389658Y-129857118D01*
X193096148Y-130150627D01*
X193096148Y-130150628D01*
X193102058Y-130154576D01*
X193102060Y-130154577D01*
X193213064Y-130200556D01*
X193213076Y-130200559D01*
X193330915Y-130223999D01*
X193330918Y-130224000D01*
X193581082Y-130224000D01*
X193581084Y-130223999D01*
X193698923Y-130200559D01*
X193698935Y-130200556D01*
X193809939Y-130154577D01*
X193809946Y-130154573D01*
X193815851Y-130150628D01*
X193815851Y-130150627D01*
X193522342Y-129857118D01*
X193597614Y-129825940D01*
X193667940Y-129755614D01*
X193699118Y-129680341D01*
X194005557Y-129986780D01*
X194061576Y-129902941D01*
X194061577Y-129902939D01*
X194107556Y-129791935D01*
X194107559Y-129791923D01*
X194130999Y-129674084D01*
X194131000Y-129674082D01*
X194131000Y-129553917D01*
X194130999Y-129553915D01*
X194107559Y-129436076D01*
X194107556Y-129436064D01*
X194061578Y-129325062D01*
X194061571Y-129325049D01*
X193994818Y-129225147D01*
X193992381Y-129222177D01*
X193991858Y-129221848D01*
X193991522Y-129221130D01*
X193990953Y-129220437D01*
X193991129Y-129220291D01*
X193978619Y-129193554D01*
X193978430Y-129193208D01*
X193654223Y-128869001D01*
X193690809Y-128869001D01*
X193755128Y-128842358D01*
X193804356Y-128793130D01*
X193830999Y-128728811D01*
X193830999Y-128692225D01*
X194132481Y-128993707D01*
X194154245Y-128990842D01*
X194179105Y-128994718D01*
X194204263Y-128994486D01*
X194213035Y-129000009D01*
X194223280Y-129001607D01*
X194242099Y-129018310D01*
X194263388Y-129031715D01*
X194267781Y-129041104D01*
X194275536Y-129047987D01*
X194279784Y-129055320D01*
X194279833Y-129055413D01*
X194363337Y-129180384D01*
X194363340Y-129180388D01*
X194469611Y-129286659D01*
X194469615Y-129286662D01*
X194594576Y-129370159D01*
X194594589Y-129370166D01*
X194727240Y-129425111D01*
X194733440Y-129427679D01*
X194733444Y-129427679D01*
X194733445Y-129427680D01*
X194880847Y-129457001D01*
X194880850Y-129457001D01*
X195031150Y-129457001D01*
X195162601Y-129430853D01*
X195178558Y-129427679D01*
X195317415Y-129370163D01*
X195442383Y-129286662D01*
X195442386Y-129286659D01*
X195518318Y-129210728D01*
X195525930Y-129206571D01*
X195531087Y-129199595D01*
X195556131Y-129190080D01*
X195579641Y-129177243D01*
X195588292Y-129177861D01*
X195596402Y-129174781D01*
X195622611Y-129180316D01*
X195649333Y-129182227D01*
X195658069Y-129187804D01*
X195664764Y-129189218D01*
X195691877Y-129209387D01*
X195693146Y-129210197D01*
X195693477Y-129210524D01*
X195769615Y-129286662D01*
X195772490Y-129288583D01*
X195779184Y-129295196D01*
X195793457Y-129320962D01*
X195810038Y-129345305D01*
X195810195Y-129351176D01*
X195813041Y-129356314D01*
X195811118Y-129385702D01*
X195811906Y-129415149D01*
X195808540Y-129425111D01*
X195808480Y-129426035D01*
X195808016Y-129426661D01*
X195806601Y-129430853D01*
X195804442Y-129436064D01*
X195804438Y-129436076D01*
X195780999Y-129553915D01*
X195780999Y-129674084D01*
X195804439Y-129791923D01*
X195804442Y-129791935D01*
X195850421Y-129902940D01*
X195906441Y-129986779D01*
X196212880Y-129680341D01*
X196244059Y-129755614D01*
X196314385Y-129825940D01*
X196389657Y-129857118D01*
X196096147Y-130150627D01*
X196096147Y-130150628D01*
X196102057Y-130154576D01*
X196102059Y-130154577D01*
X196213063Y-130200556D01*
X196213075Y-130200559D01*
X196330914Y-130223999D01*
X196330917Y-130224000D01*
X196581081Y-130224000D01*
X196581083Y-130223999D01*
X196698922Y-130200559D01*
X196698934Y-130200556D01*
X196809938Y-130154577D01*
X196809945Y-130154573D01*
X196815850Y-130150628D01*
X196815850Y-130150627D01*
X196522341Y-129857118D01*
X196597613Y-129825940D01*
X196667939Y-129755614D01*
X196699117Y-129680341D01*
X197005556Y-129986780D01*
X197061575Y-129902941D01*
X197061576Y-129902939D01*
X197107555Y-129791935D01*
X197107556Y-129791932D01*
X197118532Y-129736750D01*
X197150917Y-129674839D01*
X197211632Y-129640264D01*
X197281401Y-129644003D01*
X197309041Y-129657838D01*
X197424181Y-129734772D01*
X197424194Y-129734779D01*
X197508398Y-129769657D01*
X197551671Y-129787581D01*
X197551675Y-129787581D01*
X197551676Y-129787582D01*
X197687003Y-129814501D01*
X197687006Y-129814501D01*
X197824994Y-129814501D01*
X197938498Y-129791923D01*
X197960327Y-129787581D01*
X198069715Y-129742271D01*
X198087803Y-129734779D01*
X198087803Y-129734778D01*
X198087810Y-129734776D01*
X198202541Y-129658115D01*
X198300113Y-129560543D01*
X198376774Y-129445812D01*
X198384285Y-129427680D01*
X198408110Y-129370159D01*
X198429579Y-129318329D01*
X198448705Y-129222177D01*
X198456499Y-129182996D01*
X198456499Y-129045005D01*
X198429580Y-128909678D01*
X198429579Y-128909677D01*
X198429579Y-128909673D01*
X198429577Y-128909668D01*
X198408579Y-128858973D01*
X198401110Y-128789504D01*
X198432386Y-128727025D01*
X198475687Y-128696960D01*
X198589000Y-128650024D01*
X198643766Y-128613431D01*
X198386643Y-128356307D01*
X198396909Y-128353557D01*
X198465318Y-128314061D01*
X198521173Y-128258206D01*
X198560669Y-128189797D01*
X198563419Y-128179531D01*
X198820542Y-128436654D01*
X198820543Y-128436654D01*
X198857136Y-128381888D01*
X198906133Y-128263599D01*
X198906135Y-128263591D01*
X198931112Y-128138024D01*
X198931113Y-128138021D01*
X198931113Y-128009981D01*
X198931112Y-128009977D01*
X198906135Y-127884410D01*
X198906133Y-127884402D01*
X198857136Y-127766114D01*
X198857131Y-127766104D01*
X198820543Y-127711347D01*
X198820542Y-127711347D01*
X198563419Y-127968470D01*
X198560669Y-127958205D01*
X198521173Y-127889796D01*
X198465318Y-127833941D01*
X198396909Y-127794445D01*
X198386643Y-127791694D01*
X198643766Y-127534571D01*
X198643765Y-127534570D01*
X198589001Y-127497977D01*
X198470711Y-127448980D01*
X198470703Y-127448978D01*
X198345136Y-127424001D01*
X198217089Y-127424001D01*
X198091522Y-127448978D01*
X198091514Y-127448980D01*
X197973222Y-127497979D01*
X197918459Y-127534569D01*
X197918458Y-127534570D01*
X198175583Y-127791694D01*
X198165317Y-127794445D01*
X198096908Y-127833941D01*
X198041053Y-127889796D01*
X198001557Y-127958205D01*
X197998806Y-127968470D01*
X197741682Y-127711346D01*
X197741681Y-127711347D01*
X197705091Y-127766110D01*
X197656092Y-127884402D01*
X197656090Y-127884410D01*
X197631113Y-128009977D01*
X197631113Y-128138024D01*
X197656090Y-128263591D01*
X197656093Y-128263601D01*
X197657992Y-128268187D01*
X197665455Y-128337657D01*
X197634176Y-128400133D01*
X197574084Y-128435781D01*
X197567621Y-128437248D01*
X197551673Y-128440420D01*
X197551666Y-128440422D01*
X197424194Y-128493222D01*
X197424181Y-128493229D01*
X197309457Y-128569886D01*
X197223105Y-128656238D01*
X197161781Y-128689722D01*
X197092090Y-128684738D01*
X197036156Y-128642866D01*
X197013807Y-128592748D01*
X196989678Y-128471447D01*
X196989677Y-128471446D01*
X196989677Y-128471442D01*
X196976828Y-128440421D01*
X196932164Y-128332591D01*
X196932157Y-128332578D01*
X196848660Y-128207617D01*
X196848657Y-128207613D01*
X196742386Y-128101342D01*
X196742382Y-128101339D01*
X196617421Y-128017842D01*
X196617408Y-128017835D01*
X196483962Y-127962561D01*
X196429558Y-127918720D01*
X196407493Y-127852426D01*
X196424772Y-127784727D01*
X196475909Y-127737116D01*
X196531414Y-127724000D01*
X196581081Y-127724000D01*
X196581083Y-127723999D01*
X196698922Y-127700559D01*
X196698934Y-127700556D01*
X196809938Y-127654577D01*
X196809945Y-127654573D01*
X196815850Y-127650628D01*
X196522340Y-127357118D01*
X196597613Y-127325940D01*
X196667939Y-127255614D01*
X196699117Y-127180341D01*
X197005555Y-127486779D01*
X197061575Y-127402941D01*
X197061576Y-127402939D01*
X197107555Y-127291935D01*
X197107558Y-127291923D01*
X197130998Y-127174084D01*
X197130999Y-127174082D01*
X197130999Y-127053917D01*
X197130998Y-127053915D01*
X197107558Y-126936076D01*
X197107555Y-126936064D01*
X197061577Y-126825062D01*
X197061570Y-126825050D01*
X197005555Y-126741219D01*
X196699117Y-127047657D01*
X196667939Y-126972386D01*
X196597613Y-126902060D01*
X196522338Y-126870880D01*
X196815849Y-126577370D01*
X196809946Y-126573426D01*
X196698930Y-126527442D01*
X196698925Y-126527440D01*
X196621419Y-126512023D01*
X196559509Y-126479637D01*
X196524935Y-126418921D01*
X196528676Y-126349152D01*
X196557929Y-126302726D01*
X196615986Y-126244670D01*
X196692647Y-126129939D01*
X196745452Y-126002456D01*
X196767584Y-125891193D01*
X196772372Y-125867123D01*
X196772372Y-125729132D01*
X196745453Y-125593805D01*
X196745452Y-125593804D01*
X196745452Y-125593800D01*
X196731254Y-125559522D01*
X196692650Y-125466323D01*
X196692643Y-125466310D01*
X196615986Y-125351586D01*
X196615983Y-125351582D01*
X196518417Y-125254016D01*
X196518413Y-125254013D01*
X196403689Y-125177356D01*
X196403676Y-125177349D01*
X196276204Y-125124549D01*
X196276194Y-125124546D01*
X196140867Y-125097628D01*
X196140865Y-125097628D01*
X196002879Y-125097628D01*
X195954591Y-125107232D01*
X195946684Y-125106524D01*
X195939248Y-125109298D01*
X195912384Y-125103454D01*
X195884999Y-125101003D01*
X195876990Y-125095754D01*
X195870975Y-125094446D01*
X195842721Y-125073295D01*
X195675832Y-124906406D01*
X195675830Y-124906403D01*
X195570923Y-124801496D01*
X195570918Y-124801492D01*
X195451095Y-124732313D01*
X195451094Y-124732312D01*
X195435241Y-124728064D01*
X195419389Y-124723817D01*
X195419387Y-124723816D01*
X195372074Y-124711138D01*
X195317440Y-124696499D01*
X195179074Y-124696499D01*
X195171478Y-124696499D01*
X195171462Y-124696500D01*
X192404373Y-124696500D01*
X192337334Y-124676815D01*
X192316692Y-124660181D01*
X187858819Y-120202308D01*
X187825334Y-120140985D01*
X187822500Y-120114627D01*
X187822500Y-118603701D01*
X188670999Y-118603701D01*
X188682601Y-118662032D01*
X188682602Y-118662033D01*
X188726807Y-118728190D01*
X188792964Y-118772395D01*
X188792965Y-118772396D01*
X188851296Y-118783998D01*
X188851300Y-118783999D01*
X189855999Y-118783999D01*
X190105999Y-118783999D01*
X191110698Y-118783999D01*
X191110701Y-118783998D01*
X191169032Y-118772396D01*
X191169033Y-118772395D01*
X191235190Y-118728190D01*
X191279395Y-118662033D01*
X191279396Y-118662032D01*
X191290998Y-118603701D01*
X191290999Y-118603698D01*
X191290999Y-118198999D01*
X190105999Y-118198999D01*
X190105999Y-118783999D01*
X189855999Y-118783999D01*
X189855999Y-118198999D01*
X188670999Y-118198999D01*
X188670999Y-118603701D01*
X187822500Y-118603701D01*
X187822500Y-117544296D01*
X188670999Y-117544296D01*
X188670999Y-117948999D01*
X189855999Y-117948999D01*
X190105999Y-117948999D01*
X191290999Y-117948999D01*
X191290999Y-117544300D01*
X191290998Y-117544296D01*
X191279396Y-117485965D01*
X191279395Y-117485964D01*
X191235190Y-117419807D01*
X191169033Y-117375602D01*
X191169032Y-117375601D01*
X191110701Y-117363999D01*
X190105999Y-117363999D01*
X190105999Y-117948999D01*
X189855999Y-117948999D01*
X189855999Y-117363999D01*
X188851296Y-117363999D01*
X188792965Y-117375601D01*
X188792964Y-117375602D01*
X188726807Y-117419807D01*
X188682602Y-117485964D01*
X188682601Y-117485965D01*
X188670999Y-117544296D01*
X187822500Y-117544296D01*
X187822500Y-116664551D01*
X187842185Y-116597512D01*
X187858819Y-116576870D01*
X188063645Y-116372044D01*
X188290762Y-116144926D01*
X188352083Y-116111443D01*
X188421774Y-116116427D01*
X188477708Y-116158298D01*
X188488922Y-116176307D01*
X188542949Y-116282341D01*
X188542951Y-116282343D01*
X188542953Y-116282346D01*
X188632651Y-116372044D01*
X188632653Y-116372045D01*
X188632657Y-116372049D01*
X188745693Y-116429644D01*
X188745697Y-116429646D01*
X188839474Y-116444498D01*
X188839480Y-116444499D01*
X191122517Y-116444498D01*
X191216303Y-116429645D01*
X191329341Y-116372049D01*
X191419049Y-116282341D01*
X191476645Y-116169303D01*
X191476645Y-116169301D01*
X191476646Y-116169300D01*
X191491498Y-116075523D01*
X191491499Y-116075518D01*
X191491498Y-115093083D01*
X191511182Y-115026045D01*
X191563986Y-114980290D01*
X191624342Y-114969400D01*
X191649026Y-114971165D01*
G37*
G04 #@! TD.AperFunction*
M02*
