M48
; DRILL file KiCad 10.0.3 date 2026-09-28T16:44:27
; FORMAT={-:-/ absolute / inch / decimal}
; #@! TF.CreationDate,2026-09-28T16:44:27+01:00
; #@! TF.GenerationSoftware,Kicad,Pcbnew,10.0.3
; #@! TF.FileFunction,MixedPlating,1,4
FMAT,2
INCH
; #@! TA.AperFunction,Plated,PTH,ViaDrill
T1C0.0118
; #@! TA.AperFunction,Plated,PTH,ComponentDrill
T2C0.0138
; #@! TA.AperFunction,Plated,PTH,ComponentDrill
T3C0.0197
; #@! TA.AperFunction,Plated,PTH,ComponentDrill
T4C0.0236
; #@! TA.AperFunction,NonPlated,NPTH,ComponentDrill
T5C0.0315
%
G90
G05
T1
X7.1951Y-4.6462
X7.1951Y-4.7543
X7.1951Y-4.8294
X7.2561Y-4.6116
X7.2571Y-4.6867
X7.3Y-4.7543
X7.3045Y-4.8936
X7.3191Y-4.6482
X7.3791Y-4.9525
X7.4176Y-4.6482
X7.4484Y-4.9525
X7.4484Y-5.0343
X7.4484Y-5.1143
X7.4602Y-4.7543
X7.4786Y-4.6135
X7.5416Y-4.6502
X7.5416Y-4.7543
X7.5416Y-4.8294
X7.6984Y-4.9736
X7.7194Y-4.9527
X7.81Y-4.9525
T2
X7.6243Y-5.0667
X7.6498Y-5.0411
X7.6754Y-5.0667
X7.701Y-5.0411
X7.7266Y-5.0667
T3
X7.6164Y-5.0045
X7.6164Y-5.1029
X7.7345Y-5.0045
X7.7345Y-5.1029
T4
X7.5445Y-5.0423
X7.8063Y-5.0423
T5
X7.5652Y-5.0832
X7.7857Y-5.0832
M30
